<svg width="54" height="32" viewBox="0 0 54 32" fill="none" xmlns="http://www.w3.org/2000/svg">
<g style="mix-blend-mode:luminosity" opacity="0.8">
<g style="mix-blend-mode:luminosity" opacity="0.8">
<path d="M15.347 11.6746C15.347 12.3252 15.418 12.8527 15.543 13.2395C15.685 13.6263 15.862 14.0483 16.111 14.5054C16.2 14.6461 16.236 14.7867 16.236 14.9098C16.236 15.0856 16.129 15.2615 15.898 15.4373L14.779 16.1757C14.619 16.2812 14.459 16.334 14.317 16.334C14.139 16.334 13.962 16.2461 13.784 16.0878C13.536 15.8241 13.322 15.5428 13.145 15.2615C12.967 14.9626 12.789 14.6285 12.594 14.2241C11.209 15.8417 9.46801 16.6505 7.37201 16.6505C5.88001 16.6505 4.689 16.2285 3.819 15.3845C2.949 14.5406 2.505 13.4153 2.505 12.0087C2.505 10.5142 3.037 9.30104 4.121 8.38674C5.205 7.47244 6.64299 7.01534 8.47299 7.01534C9.07699 7.01534 9.69899 7.06804 10.356 7.15604C11.013 7.24394 11.688 7.38454 12.399 7.54284V6.25934C12.399 4.92303 12.114 3.99116 11.564 3.44611C10.995 2.90105 10.036 2.63732 8.668 2.63732C8.047 2.63732 7.407 2.70765 6.75 2.86589C6.093 3.02413 5.453 3.21754 4.832 3.46369C4.547 3.58677 4.33399 3.6571 4.20999 3.69226C4.08599 3.72743 3.99699 3.74501 3.92599 3.74501C3.67699 3.74501 3.55301 3.56918 3.55301 3.19995V2.33842C3.55301 2.0571 3.588 1.84611 3.677 1.72303C3.766 1.59995 3.92601 1.47688 4.17401 1.3538C4.79601 1.03732 5.54199 0.77358 6.41199 0.56259C7.28299 0.33402 8.20699 0.228529 9.18399 0.228529C11.297 0.228529 12.843 0.703249 13.837 1.6527C14.814 2.60215 15.312 4.04391 15.312 5.97798V11.6746H15.347ZM8.13599 14.3472C8.72199 14.3472 9.326 14.2417 9.965 14.0307C10.605 13.8197 11.173 13.4329 11.653 12.9054C11.937 12.5713 12.15 12.2021 12.257 11.7801C12.363 11.3582 12.434 10.8483 12.434 10.2505V9.51204C11.919 9.38894 11.368 9.28344 10.8 9.21314C10.232 9.14284 9.68101 9.10764 9.13 9.10764C7.94 9.10764 7.07001 9.33624 6.48401 9.81094C5.89701 10.2856 5.61301 10.9538 5.61301 11.8329C5.61301 12.6593 5.82599 13.2746 6.26999 13.6966C6.69699 14.1362 7.31799 14.3472 8.13599 14.3472ZM22.399 16.2461C22.08 16.2461 21.866 16.1933 21.724 16.0702C21.582 15.9647 21.458 15.7186 21.351 15.3845L17.177 1.79336C17.07 1.44171 17.017 1.21314 17.017 1.09006C17.017 0.808739 17.159 0.650499 17.443 0.650499H19.184C19.522 0.650499 19.753 0.703249 19.877 0.826329C20.019 0.931819 20.126 1.17798 20.232 1.51204L23.216 13.1516L25.987 1.51204C26.076 1.16039 26.183 0.931819 26.325 0.826329C26.467 0.720829 26.716 0.650499 27.036 0.650499H28.457C28.794 0.650499 29.025 0.703249 29.167 0.826329C29.309 0.931819 29.434 1.17798 29.505 1.51204L32.311 13.2922L35.384 1.51204C35.491 1.16039 35.615 0.931819 35.739 0.826329C35.882 0.720829 36.112 0.650499 36.432 0.650499H38.084C38.368 0.650499 38.528 0.791159 38.528 1.09006C38.528 1.17798 38.511 1.26589 38.493 1.37138C38.475 1.47688 38.439 1.61754 38.368 1.81094L34.087 15.4021C33.981 15.7538 33.857 15.9823 33.714 16.0878C33.572 16.1933 33.341 16.2637 33.039 16.2637H31.512C31.174 16.2637 30.943 16.2109 30.801 16.0878C30.659 15.9647 30.535 15.7362 30.464 15.3845L27.711 4.04391L24.975 15.3669C24.886 15.7186 24.78 15.9472 24.637 16.0702C24.495 16.1933 24.247 16.2461 23.927 16.2461H22.399ZM45.225 16.7208C44.301 16.7208 43.378 16.6153 42.489 16.4043C41.601 16.1933 40.909 15.9647 40.447 15.701C40.162 15.5428 39.967 15.3669 39.896 15.2087C39.825 15.0505 39.789 14.8746 39.789 14.7164V13.8197C39.789 13.4505 39.932 13.2746 40.198 13.2746C40.305 13.2746 40.411 13.2922 40.518 13.3274C40.624 13.3626 40.784 13.4329 40.962 13.5032C41.566 13.7669 42.223 13.9779 42.916 14.1186C43.626 14.2593 44.319 14.3296 45.03 14.3296C46.149 14.3296 47.019 14.1362 47.623 13.7494C48.227 13.3625 48.547 12.7999 48.547 12.079C48.547 11.5867 48.387 11.1823 48.067 10.8483C47.747 10.5142 47.143 10.2153 46.273 9.93404L43.697 9.14284C42.401 8.73844 41.441 8.14064 40.855 7.34944C40.269 6.57574 39.967 5.71424 39.967 4.79995C39.967 4.06149 40.127 3.41094 40.447 2.84831C40.766 2.28567 41.193 1.79336 41.726 1.40655C42.259 1.00215 42.862 0.70325 43.573 0.49226C44.284 0.28127 45.03 0.193359 45.811 0.193359C46.202 0.193359 46.611 0.21094 47.001 0.26369C47.41 0.31644 47.783 0.386769 48.156 0.457099C48.511 0.545009 48.849 0.63292 49.168 0.73842C49.488 0.84391 49.737 0.949399 49.914 1.0549C50.163 1.19556 50.341 1.33622 50.447 1.49446C50.554 1.63512 50.607 1.82853 50.607 2.07468V2.90105C50.607 3.27028 50.465 3.46369 50.199 3.46369C50.057 3.46369 49.826 3.39336 49.524 3.2527C48.511 2.79556 47.374 2.56699 46.113 2.56699C45.101 2.56699 44.301 2.72523 43.751 3.05929C43.2 3.39336 42.916 3.90325 42.916 4.62413C42.916 5.11644 43.093 5.53842 43.449 5.87248C43.804 6.20654 44.461 6.54064 45.403 6.83954L47.925 7.63074C49.204 8.03514 50.128 8.59774 50.678 9.31864C51.229 10.0395 51.495 10.8658 51.495 11.7801C51.495 12.5362 51.336 13.2219 51.034 13.8197C50.714 14.4175 50.287 14.945 49.737 15.3669C49.186 15.8065 48.529 16.123 47.765 16.3516C46.966 16.5977 46.131 16.7208 45.225 16.7208Z" fill="#B5C0F8"/>
</g>
<g style="mix-blend-mode:luminosity" opacity="0.8">
<path fill-rule="evenodd" clip-rule="evenodd" d="M48.582 25.2658C42.738 29.5383 34.247 31.8065 26.947 31.8065C16.715 31.8065 7.49597 28.0614 0.532967 21.8372C-0.0180334 21.3449 0.47997 20.6768 1.13697 21.0636C8.66797 25.3889 17.959 28.0087 27.568 28.0087C34.052 28.0087 41.175 26.6724 47.73 23.9295C48.707 23.49 49.541 24.5625 48.582 25.2658Z" fill="#B5C0F8"/>
</g>
<g style="mix-blend-mode:luminosity" opacity="0.8">
<path fill-rule="evenodd" clip-rule="evenodd" d="M51.016 22.523C50.27 21.5735 46.078 22.0658 44.177 22.2944C43.609 22.3647 43.52 21.8724 44.035 21.5032C47.374 19.1823 52.863 19.8504 53.503 20.6241C54.142 21.4153 53.325 26.8482 50.199 29.4504C49.719 29.8548 49.257 29.6438 49.47 29.1164C50.181 27.3757 51.762 23.4548 51.016 22.523Z" fill="#B5C0F8"/>
</g>
</g>
</svg>
