<svg width="86" height="28" viewBox="0 0 86 28" fill="none" xmlns="http://www.w3.org/2000/svg">
<g style="mix-blend-mode:luminosity" opacity="0.8">
<g style="mix-blend-mode:luminosity" opacity="0.8">
<path d="M85.27 22.771C85.174 22.7716 85.079 22.7534 84.99 22.7177C84.901 22.6819 84.82 22.6292 84.753 22.5626C84.685 22.496 84.631 22.4169 84.594 22.3298C84.558 22.2427 84.539 22.1493 84.54 22.0552C84.54 21.6681 84.863 21.3394 85.27 21.3394C85.665 21.3394 86 21.6563 86 22.0552C85.997 22.244 85.919 22.4243 85.783 22.5579C85.646 22.6914 85.463 22.7678 85.27 22.771ZM85.27 21.4804C85.115 21.4808 84.966 21.5415 84.856 21.6492C84.746 21.7569 84.684 21.9029 84.684 22.0552C84.684 22.2075 84.746 22.3535 84.856 22.4612C84.966 22.5689 85.115 22.6296 85.27 22.63C85.425 22.6296 85.574 22.5689 85.684 22.4612C85.794 22.3535 85.856 22.2075 85.856 22.0552C85.856 21.9029 85.794 21.7569 85.684 21.6492C85.574 21.5415 85.425 21.4808 85.27 21.4804ZM85.641 22.4307H85.473L85.329 22.1606H85.138V22.4307H84.982V21.6444H85.365C85.533 21.6444 85.641 21.7498 85.641 21.9027C85.642 21.9541 85.626 22.0045 85.596 22.0466C85.566 22.0887 85.523 22.1205 85.473 22.1372L85.641 22.4337V22.4307ZM85.354 22.0199C85.413 22.0199 85.473 21.9847 85.473 21.9027C85.473 21.8088 85.426 21.7854 85.354 21.7854H85.114V22.0199H85.354ZM14.335 27.8515H9.229V21.2689H11.096V26.2555H14.339L14.335 27.8515ZM16.262 24.5778V24.5548C16.262 22.6656 17.817 21.1289 19.888 21.1289C21.958 21.1289 23.49 22.6425 23.49 24.5317V24.5548C23.49 26.4439 21.934 27.9806 19.864 27.9806C17.794 27.9806 16.262 26.467 16.262 24.5778ZM21.599 24.5778V24.5548C21.599 23.6044 20.905 22.7825 19.875 22.7825C18.858 22.7825 18.176 23.5922 18.176 24.5426V24.5656C18.176 25.516 18.87 26.3379 19.888 26.3379C20.916 26.3379 21.599 25.5282 21.599 24.5778ZM25.774 24.9649V21.2689H27.665V24.9296C27.665 25.88 28.156 26.3263 28.898 26.3263C29.64 26.3263 30.131 25.8922 30.131 24.9771V21.2689H32.022V24.9178C32.022 27.0415 30.789 27.9681 28.875 27.9681C26.972 27.9681 25.775 27.0293 25.775 24.9639L25.774 24.9649ZM34.869 21.2679H37.454C39.847 21.2679 41.247 22.6172 41.247 24.5182V24.5412C41.247 26.442 39.835 27.8502 37.418 27.8502H34.869V21.2689V21.2679ZM37.489 26.2311C38.602 26.2311 39.344 25.6326 39.344 24.565V24.5419C39.344 23.4858 38.602 22.8757 37.489 22.8757H36.735V26.2199H37.489V26.2311ZM45.806 23.9901H48.989V25.5038H45.806V27.8505H43.951V21.2689H49.324V22.8645H45.806V23.9901ZM57.018 27.8508H51.912V21.2689H53.766V26.2555H57.021L57.018 27.8508ZM61.876 21.2218H63.671L66.531 27.8512H64.532L64.042 26.6778H61.457L60.978 27.8512H59.028L61.876 21.2218ZM63.516 25.258L62.774 23.3959L62.02 25.2617H63.516V25.258ZM68.924 21.2689H72.096C73.125 21.2689 73.831 21.5271 74.285 21.9847C74.68 22.3602 74.883 22.8642 74.883 23.5217V23.5448C74.883 24.5538 74.332 25.2228 73.507 25.5631L75.111 27.863H72.957L71.604 25.8684H70.791V27.863H68.924V21.2689ZM72.015 24.4253C72.649 24.4253 73.008 24.1203 73.008 23.6512V23.6281C73.008 23.1119 72.625 22.854 72.003 22.854H70.782V24.4263H72.015V24.4253ZM79.41 23.8152H82.629V25.258H79.41V26.3023H83.012V27.8512H77.567V21.2689H82.964V22.8178H79.41V23.8152ZM5.15698 25.3526C4.89398 25.9274 4.344 26.3382 3.625 26.3382C2.608 26.3382 1.914 25.5048 1.914 24.566V24.5429C1.914 23.5925 2.59598 22.7828 3.61298 22.7828C4.37898 22.7828 4.96502 23.2407 5.20502 23.8742H7.16699C6.85599 22.3019 5.444 21.1401 3.625 21.1401C1.555 21.1394 0 22.6771 0 24.566V24.589C0 26.4782 1.53199 27.9918 3.60199 27.9918C5.37299 27.9918 6.76099 26.8652 7.12 25.3631L5.15698 25.3513V25.3526Z" fill="#B5C0F8"/>
</g>
<g style="mix-blend-mode:luminosity" opacity="0.8">
<path d="M53.74 18.101H80.759V10.7673L75.626 7.88099L74.741 7.50549L53.74 7.64619V18.101Z" fill="#B5C0F8"/>
</g>
<g style="mix-blend-mode:luminosity" opacity="0.8">
<path d="M71.414 17.1387C71.665 16.2938 71.569 15.5193 71.15 14.9448C70.767 14.4168 70.121 14.1114 69.343 14.0765L54.613 13.8887C54.568 13.8891 54.524 13.8785 54.484 13.8581C54.444 13.8376 54.41 13.8079 54.385 13.7715C54.338 13.701 54.325 13.6068 54.349 13.5132C54.397 13.3725 54.541 13.2668 54.696 13.2549L69.558 13.0672C71.317 12.9848 73.232 11.5888 73.902 9.87524L74.752 7.70114C74.788 7.60724 74.8 7.51334 74.775 7.41944C73.819 3.17564 69.954 0.00769043 65.335 0.00769043C61.075 0.00769043 57.461 2.70656 56.169 6.44934C55.331 5.83927 54.266 5.51051 53.117 5.61593C51.072 5.81555 49.432 7.42274 49.229 9.42924C49.181 9.94534 49.217 10.4503 49.336 10.9194C45.998 11.0133 43.33 13.6885 43.33 16.9855C43.33 17.282 43.353 17.5719 43.389 17.8651C43.413 18.0057 43.533 18.1115 43.677 18.1115H70.863C71.019 18.1115 71.166 18.0061 71.21 17.8532L71.414 17.1374V17.1387Z" fill="#B5C0F8"/>
</g>
<g style="mix-blend-mode:luminosity" opacity="0.8">
<path d="M76.104 7.85754L75.698 7.86944C75.602 7.86944 75.518 7.93994 75.483 8.03414L74.912 9.99414C74.66 10.839 74.756 11.6135 75.175 12.188C75.558 12.716 76.204 13.0214 76.982 13.0563L80.117 13.244C80.162 13.2437 80.206 13.2542 80.246 13.2747C80.286 13.2952 80.32 13.3249 80.345 13.3613C80.393 13.4318 80.405 13.5372 80.381 13.6196C80.333 13.7602 80.189 13.866 80.034 13.8778L76.7671 14.0656C74.9961 14.148 73.094 15.544 72.423 17.2576L72.184 17.8561C72.137 17.9734 72.22 18.0907 72.352 18.0907H83.576C83.708 18.0907 83.827 18.0083 83.863 17.8799C84.055 17.1993 84.165 16.4832 84.165 15.7443C84.165 11.4026 80.552 7.85924 76.112 7.85924" fill="#B5C0F8"/>
</g>
</g>
</svg>
