<svg width="50" height="50" viewBox="0 0 50 50" fill="none" xmlns="http://www.w3.org/2000/svg">
<path d="M41.6666 25C41.6666 29.6042 34.2041 33.3333 25 33.3333C15.7958 33.3333 8.33331 29.6042 8.33331 25H41.6666ZM8.33331 14.5833V35.4167C8.33331 40.0208 15.7958 43.75 25 43.75C34.2041 43.75 41.6666 40.0208 41.6666 35.4167V14.5833H8.33331ZM8.33331 14.5833C8.33331 19.1875 15.7958 22.9167 25 22.9167C34.2041 22.9167 41.6666 19.1875 41.6666 14.5833H8.33331ZM8.33331 14.5833C8.33331 9.97917 15.7958 6.25 25 6.25C34.2041 6.25 41.6666 9.97917 41.6666 14.5833H8.33331Z" stroke="#A5B4FC" stroke-width="2" stroke-linecap="round" stroke-linejoin="round"/>
</svg>
