<svg width="155" height="27" viewBox="0 0 155 27" fill="none" xmlns="http://www.w3.org/2000/svg">
<g style="mix-blend-mode:luminosity" opacity="0.8">
<g style="mix-blend-mode:luminosity" opacity="0.8">
<path d="M13.072 26.0012V20.9606C18.445 20.9606 22.578 15.6629 20.537 10.0566C19.762 7.97354 18.109 6.32764 16.017 5.5561C10.385 3.52445 5.06299 7.63914 5.06299 12.9883L0 13.014C0 4.5017 8.26699 -2.13332 17.231 0.644128C21.157 1.85283 24.257 4.9646 25.472 8.84784C28.262 17.7717 21.622 26.0012 13.072 26.0012Z" fill="#B5C0F8"/>
</g>
<g style="mix-blend-mode:luminosity" opacity="0.8">
<path fill-rule="evenodd" clip-rule="evenodd" d="M13.072 20.9851H8.034V15.9702H13.072V20.9851Z" fill="#B5C0F8"/>
</g>
<g style="mix-blend-mode:luminosity" opacity="0.8">
<path fill-rule="evenodd" clip-rule="evenodd" d="M8.034 24.8426H4.159V20.9851H8.034V24.8426Z" fill="#B5C0F8"/>
</g>
<g style="mix-blend-mode:luminosity" opacity="0.8">
<path fill-rule="evenodd" clip-rule="evenodd" d="M4.159 20.9852H0.903992V17.7448H4.159V20.9852Z" fill="#B5C0F8"/>
</g>
<g style="mix-blend-mode:luminosity" opacity="0.8">
<path d="M46.5 7.50928C45.002 6.48058 43.142 5.94055 40.972 5.94055H36.244V20.8822H40.972C43.142 20.8822 45.002 20.3422 46.5 19.2363C47.327 18.6705 47.972 17.8476 48.412 16.8446C48.851 15.8417 49.083 14.6587 49.083 13.3214C49.083 12.0098 48.851 10.8268 48.412 9.82388C47.972 8.84658 47.327 8.07508 46.5 7.50928ZM39.008 8.48658H40.507C42.16 8.48658 43.529 8.82088 44.562 9.43808C45.699 10.1325 46.293 11.444 46.293 13.3214C46.293 15.2759 45.699 16.6389 44.562 17.3847C43.581 18.0276 42.212 18.3619 40.532 18.3619H39.008V8.48658Z" fill="#B5C0F8"/>
</g>
<g style="mix-blend-mode:luminosity" opacity="0.8">
<path d="M52.39 5.78638C51.925 5.78638 51.538 5.94068 51.228 6.2493C50.917 6.5579 50.737 6.9436 50.737 7.3808C50.737 7.8437 50.892 8.2295 51.228 8.5381C51.538 8.8467 51.925 9.0267 52.39 9.0267C52.855 9.0267 53.243 8.8724 53.553 8.5381C53.863 8.2295 54.043 7.818 54.043 7.3808C54.043 6.9179 53.888 6.5322 53.553 6.2493C53.243 5.94068 52.829 5.78638 52.39 5.78638Z" fill="#B5C0F8"/>
</g>
<g style="mix-blend-mode:luminosity" opacity="0.8">
<path d="M53.682 10.3896H51.021V20.9336H53.682V10.3896Z" fill="#B5C0F8"/>
</g>
<g style="mix-blend-mode:luminosity" opacity="0.8">
<path d="M63.369 11.2641C62.568 10.544 61.664 10.1326 60.708 10.1326C59.236 10.1326 58.022 10.6469 57.066 11.6242C56.11 12.6014 55.645 13.8873 55.645 15.4046C55.645 16.8962 56.11 18.1563 57.066 19.185C58.022 20.1622 59.236 20.6766 60.708 20.6766C61.742 20.6766 62.62 20.3937 63.343 19.8279V20.0594C63.343 20.9338 63.111 21.6024 62.646 22.091C62.181 22.5539 61.535 22.7854 60.734 22.7854C59.494 22.7854 58.745 22.2968 57.789 21.0366L55.981 22.7597L56.032 22.8368C56.42 23.3769 57.014 23.9169 57.815 24.4313C58.616 24.9456 59.597 25.2028 60.786 25.2028C62.362 25.2028 63.653 24.7142 64.583 23.7626C65.539 22.8111 66.004 21.5252 66.004 19.9308V10.3897H63.395V11.2641H63.369ZM62.672 17.4877C62.207 18.002 61.612 18.2592 60.837 18.2592C60.062 18.2592 59.468 18.002 59.029 17.4877C58.564 16.9733 58.332 16.279 58.332 15.4303C58.332 14.5816 58.564 13.8615 59.029 13.3472C59.494 12.8329 60.088 12.55 60.837 12.55C61.612 12.55 62.207 12.8071 62.672 13.3472C63.137 13.8615 63.369 14.5816 63.369 15.4303C63.369 16.279 63.111 16.9733 62.672 17.4877Z" fill="#B5C0F8"/>
</g>
<g style="mix-blend-mode:luminosity" opacity="0.8">
<path d="M70.912 10.3896H68.252V20.9336H70.912V10.3896Z" fill="#B5C0F8"/>
</g>
<g style="mix-blend-mode:luminosity" opacity="0.8">
<path d="M69.621 5.78638C69.156 5.78638 68.768 5.94068 68.458 6.2493C68.148 6.5579 67.967 6.9436 67.967 7.3808C67.967 7.8437 68.122 8.2295 68.458 8.5381C68.768 8.8467 69.156 9.0267 69.621 9.0267C70.086 9.0267 70.473 8.8724 70.783 8.5381C71.093 8.2295 71.274 7.818 71.274 7.3808C71.274 6.9179 71.119 6.5322 70.783 6.2493C70.473 5.94068 70.06 5.78638 69.621 5.78638Z" fill="#B5C0F8"/>
</g>
<g style="mix-blend-mode:luminosity" opacity="0.8">
<path d="M76.751 7.53516H74.142V10.3898H72.618V12.8072H74.142V17.1791C74.142 18.5421 74.426 19.5193 74.968 20.0851C75.511 20.6509 76.467 20.9338 77.836 20.9338C78.275 20.9338 78.714 20.9081 79.128 20.8823H79.257V18.4649L78.353 18.5164C77.707 18.5164 77.293 18.4135 77.087 18.182C76.88 17.9506 76.777 17.4877 76.777 16.7933V12.8072H79.257V10.3898H76.777V7.53516H76.751Z" fill="#B5C0F8"/>
</g>
<g style="mix-blend-mode:luminosity" opacity="0.8">
<path d="M94.369 5.96631H91.708V20.9079H94.369V5.96631Z" fill="#B5C0F8"/>
</g>
<g style="mix-blend-mode:luminosity" opacity="0.8">
<path d="M121.262 17.1533C120.797 17.6934 120.306 18.1563 119.918 18.3878C119.557 18.6192 119.092 18.7478 118.549 18.7478C117.774 18.7478 117.128 18.4649 116.612 17.8734C116.095 17.2819 115.837 16.5361 115.837 15.636C115.837 14.7359 116.095 13.9901 116.586 13.4244C117.102 12.8329 117.723 12.55 118.498 12.55C119.35 12.55 120.254 13.09 121.029 13.9901L122.786 12.3185C121.649 10.8269 120.177 10.1326 118.42 10.1326C116.947 10.1326 115.682 10.6726 114.648 11.7013C113.615 12.73 113.098 14.0673 113.098 15.636C113.098 17.2048 113.615 18.5163 114.648 19.5707C115.682 20.6251 116.947 21.1395 118.42 21.1395C120.358 21.1395 121.908 20.3165 122.941 18.7992L121.262 17.1533Z" fill="#B5C0F8"/>
</g>
<g style="mix-blend-mode:luminosity" opacity="0.8">
<path d="M132.189 11.8556C131.802 11.3413 131.285 10.9041 130.665 10.5955C130.019 10.2869 129.296 10.1326 128.469 10.1326C126.971 10.1326 125.757 10.6726 124.853 11.7527C123.974 12.8329 123.509 14.1444 123.509 15.7132C123.509 17.3076 124 18.6192 124.982 19.6479C125.938 20.6509 127.255 21.1652 128.831 21.1652C130.613 21.1652 132.112 20.4451 133.197 19.005L133.248 18.9278L131.518 17.2562C131.363 17.4619 131.13 17.6677 130.923 17.8734C130.665 18.1306 130.407 18.3106 130.148 18.4392C129.761 18.6449 129.296 18.7221 128.805 18.7221C128.056 18.7221 127.462 18.5163 126.997 18.0792C126.558 17.6934 126.299 17.1533 126.248 16.4847H133.3L133.326 15.5074C133.326 14.8131 133.223 14.1702 133.042 13.5529C132.861 12.9615 132.577 12.37 132.189 11.8556ZM126.377 14.3245C126.506 13.8101 126.738 13.3986 127.074 13.0643C127.436 12.7043 127.901 12.5243 128.469 12.5243C129.115 12.5243 129.606 12.7043 129.942 13.0643C130.252 13.3986 130.433 13.8101 130.484 14.2987H126.377V14.3245Z" fill="#B5C0F8"/>
</g>
<g style="mix-blend-mode:luminosity" opacity="0.8">
<path d="M142.419 11.1613C141.618 10.4669 140.508 10.1326 139.113 10.1326C138.234 10.1326 137.408 10.3383 136.658 10.6983C135.961 11.0584 135.289 11.6242 134.85 12.3957L134.876 12.4214L136.581 14.0416C137.278 12.9357 138.053 12.55 139.087 12.55C139.655 12.55 140.094 12.7043 140.456 12.9872C140.818 13.2701 140.973 13.6558 140.973 14.1187V14.6331C140.301 14.4273 139.655 14.3245 139.009 14.3245C137.692 14.3245 136.607 14.6331 135.806 15.2503C135.005 15.8675 134.592 16.7676 134.592 17.8734C134.592 18.8507 134.928 19.6736 135.625 20.2651C136.323 20.8309 137.175 21.1395 138.183 21.1395C139.19 21.1395 140.146 20.728 140.998 20.0337V20.908H143.608V14.1444C143.659 12.8586 143.246 11.8556 142.419 11.1613ZM137.692 16.8962C138.002 16.6904 138.415 16.5876 138.958 16.5876C139.603 16.5876 140.275 16.7161 140.973 16.9733V18.002C140.404 18.5421 139.629 18.7992 138.673 18.7992C138.208 18.7992 137.847 18.6964 137.614 18.4906C137.382 18.2849 137.253 18.0534 137.253 17.7191C137.253 17.3591 137.408 17.1019 137.692 16.8962Z" fill="#B5C0F8"/>
</g>
<g style="mix-blend-mode:luminosity" opacity="0.8">
<path d="M153.889 11.367C153.14 10.544 152.107 10.1326 150.789 10.1326C149.73 10.1326 148.877 10.4412 148.232 11.0327V10.3897H145.622V20.9338H148.283V15.096C148.283 14.2987 148.464 13.6558 148.852 13.2186C149.239 12.7557 149.73 12.55 150.427 12.55C151.022 12.55 151.487 12.7557 151.823 13.1415C152.158 13.5529 152.339 14.093 152.339 14.7874V20.8823H155V14.8131C155 13.3472 154.638 12.1899 153.889 11.367Z" fill="#B5C0F8"/>
</g>
<g style="mix-blend-mode:luminosity" opacity="0.8">
<path d="M88.376 11.1613C87.575 10.4669 86.464 10.1326 85.069 10.1326C84.191 10.1326 83.364 10.3383 82.615 10.6983C81.917 11.0584 81.246 11.6242 80.807 12.3957L80.832 12.4214L82.537 14.0416C83.235 12.9357 84.01 12.55 85.043 12.55C85.612 12.55 86.051 12.7043 86.412 12.9872C86.774 13.2701 86.929 13.6558 86.929 14.1187V14.6331C86.257 14.4273 85.612 14.3245 84.966 14.3245C83.648 14.3245 82.563 14.6331 81.762 15.2503C80.962 15.8675 80.548 16.7676 80.548 17.8734C80.548 18.8507 80.884 19.6736 81.582 20.2651C82.279 20.8309 83.132 21.1395 84.139 21.1395C85.147 21.1395 86.102 20.728 86.955 20.0337V20.908H89.564V14.1444C89.59 12.8586 89.177 11.8556 88.376 11.1613ZM83.648 16.8962C83.958 16.6904 84.372 16.5876 84.914 16.5876C85.56 16.5876 86.232 16.7161 86.929 16.9733V18.002C86.361 18.5421 85.586 18.7992 84.63 18.7992C84.165 18.7992 83.803 18.6964 83.571 18.4906C83.338 18.2849 83.209 18.0534 83.209 17.7191C83.209 17.3591 83.338 17.1019 83.648 16.8962Z" fill="#B5C0F8"/>
</g>
<g style="mix-blend-mode:luminosity" opacity="0.8">
<path d="M104.031 21.1395C99.768 21.1395 96.281 17.6934 96.281 13.4244C96.281 9.1553 99.742 5.70923 104.031 5.70923C108.319 5.70923 111.781 9.1553 111.781 13.4244C111.781 17.6934 108.293 21.1395 104.031 21.1395ZM104.031 8.4352C101.267 8.4352 99.019 10.6726 99.019 13.4244C99.019 16.1761 101.267 18.4135 104.031 18.4135C106.795 18.4135 109.042 16.1761 109.042 13.4244C109.042 10.6726 106.795 8.4352 104.031 8.4352Z" fill="#B5C0F8"/>
</g>
</g>
</svg>
