<svg width="31" height="31" viewBox="0 0 31 31" fill="none" xmlns="http://www.w3.org/2000/svg">
<g style="mix-blend-mode:luminosity" opacity="0.8">
<g style="mix-blend-mode:luminosity" opacity="0.8">
<path d="M20.312 30.2125H20.175L20.038 30.075V29.25V25.8125C20.038 24.85 19.9 24.025 19.487 23.3375C22.65 22.7875 26.088 21.1375 26.088 14.95C26.088 13.3 25.538 11.7875 24.575 10.55C24.85 9.725 24.987 8.21247 24.3 6.28748L23.888 5.87498C23.888 5.87498 23.613 5.73748 23.338 5.73748C22.513 5.73748 21.275 6.01248 19.212 7.38748C18.112 7.24998 16.875 6.97498 15.5 6.97498C14.125 6.97498 12.887 7.11248 11.65 7.38748C9.72499 6.14998 8.34999 5.87498 7.52499 5.87498C7.24999 5.87498 7.11301 6.01248 6.97501 6.01248C6.83801 6.01248 6.56201 6.28748 6.56201 6.42498C5.87501 8.34998 6.01299 9.8625 6.28799 10.6875C5.32499 11.925 4.77499 13.4375 4.77499 15.0875C4.77499 21.1375 8.35 22.7875 11.375 23.475C11.238 23.75 11.1 24.1625 10.962 24.575C10.688 24.7125 10.275 24.85 9.72501 24.85C9.17501 24.85 8.62501 24.7125 8.21201 24.3L8.07501 24.1625C7.93801 24.025 7.93799 23.8875 7.79999 23.8875L7.66299 23.75L7.52499 23.6125C7.52499 23.475 6.425 21.825 4.5 21.6875C3.812 21.6875 3.263 21.9625 3.125 22.375C2.85 23.0625 3.67501 23.6125 4.08801 23.8875C4.08801 23.8875 4.91201 24.3 5.46201 25.8125C5.73701 26.775 6.97501 28.5625 9.86301 28.5625H10.825V30.4875L10.688 30.625C10.688 30.625 10.55 30.625 10.688 30.625C4.49999 28.15 0.375 22.375 0.375 15.9125C0.375 7.52498 7.113 0.787476 15.5 0.787476C23.888 0.787476 30.625 7.52498 30.625 15.9125C30.625 22.375 26.5 28.15 20.312 30.2125Z" fill="#B5C0F8"/>
</g>
</g>
</svg>
