<svg width="126" height="26" viewBox="0 0 126 26" fill="none" xmlns="http://www.w3.org/2000/svg">
<g style="mix-blend-mode:luminosity" opacity="0.8">
<g style="mix-blend-mode:luminosity" opacity="0.8">
<path d="M25.302 1.37639C22.307 -0.489432 18.364 -0.044912 14.847 2.15826C11.341 -0.044912 7.39503 -0.489432 4.40303 1.37639C-0.328974 4.32479 -0.904971 11.9183 3.11903 18.3376C6.08503 23.0704 10.724 25.8434 14.853 25.7923C18.982 25.8435 23.62 23.0704 26.586 18.3377C30.605 11.9183 30.035 4.32487 25.302 1.37639ZM5.29499 16.9822C4.46499 15.6708 3.839 14.2419 3.438 12.7439C3.082 11.4436 2.94498 10.0932 3.03498 8.7482C3.21498 6.3757 4.18303 4.5282 5.76203 3.5454C7.34003 2.5626 9.42602 2.50292 11.648 3.38218C11.982 3.51492 12.312 3.66844 12.639 3.83768C11.404 4.96016 10.331 6.247 9.44801 7.6618C7.00501 11.559 6.25999 15.8958 7.11299 19.3534C6.43299 18.6222 5.82399 17.8282 5.29499 16.9822ZM26.269 12.7428C25.867 14.2406 25.241 15.6694 24.412 16.981C23.882 17.8283 23.273 18.6238 22.594 19.3571C23.356 16.2576 22.838 12.4602 20.969 8.8992C20.939 8.8405 20.898 8.7888 20.846 8.7473C20.795 8.7057 20.736 8.6754 20.672 8.6582C20.609 8.641 20.542 8.6372 20.477 8.6473C20.412 8.6573 20.349 8.6809 20.294 8.7165L14.467 12.3458C14.414 12.3788 14.367 12.422 14.331 12.4729C14.295 12.5237 14.269 12.5812 14.255 12.6421C14.241 12.7029 14.239 12.7659 14.249 12.8275C14.259 12.8891 14.282 12.9481 14.315 13.001L15.17 14.3638C15.203 14.4168 15.247 14.4627 15.297 14.4989C15.348 14.5352 15.406 14.5611 15.467 14.5751C15.528 14.5891 15.591 14.591 15.653 14.5807C15.714 14.5703 15.773 14.5479 15.826 14.5148L19.603 12.1619C19.726 12.5272 19.848 12.8926 19.939 13.258C20.296 14.5566 20.432 15.9054 20.344 17.2489C20.164 19.6202 19.196 21.4676 17.617 22.4517C16.803 22.9479 15.87 23.2171 14.916 23.2311H14.795C13.841 23.2174 12.908 22.9482 12.094 22.4517C10.515 21.4676 9.54601 19.6201 9.36701 17.2489C9.27802 15.9039 9.41403 14.5535 9.77003 13.253C10.588 10.2444 12.281 7.5442 14.634 5.49159C15.649 4.60346 16.805 3.88976 18.055 3.37969C20.271 2.50036 22.361 2.55884 23.94 3.54292C25.52 4.52692 26.487 6.3732 26.667 8.7457C26.757 10.0908 26.623 11.4416 26.269 12.7427V12.7428ZM56.347 9.9088C53.283 9.9088 50.807 12.2934 50.807 15.3271C50.807 18.3401 53.283 20.6857 56.347 20.6857C59.431 20.6857 61.908 18.3438 61.908 15.3271C61.908 12.2946 59.435 9.91 56.347 9.91V9.9088ZM56.347 17.853C54.935 17.853 53.86 16.7143 53.86 15.3064C53.86 13.8985 54.935 12.7428 56.347 12.7428C57.78 12.7428 58.855 13.9022 58.855 15.3101C58.855 16.718 57.78 17.8579 56.347 17.8579V17.853ZM68.816 5.74715H63.178C63.117 5.74605 63.057 5.75722 63 5.77999C62.944 5.80276 62.893 5.83666 62.85 5.87966C62.807 5.92266 62.773 5.97387 62.75 6.0302C62.727 6.0866 62.716 6.1469 62.718 6.2076V19.9099C62.713 19.9726 62.722 20.0356 62.743 20.0948C62.764 20.154 62.798 20.2082 62.841 20.254C62.884 20.2997 62.936 20.3361 62.994 20.3607C63.053 20.3853 63.115 20.3977 63.178 20.3971H68.816C73.327 20.3971 76.462 17.4059 76.462 13.0545C76.462 8.6763 73.327 5.74715 68.816 5.74715ZM68.949 17.5034H65.864V8.6337H68.949C71.446 8.6337 73.167 10.4958 73.167 13.0485C73.167 15.5585 71.446 17.5035 68.949 17.5035V17.5034ZM87.684 10.2035H85.564C85.447 10.2127 85.337 10.2648 85.256 10.3498C85.175 10.4347 85.128 10.5465 85.124 10.6638V11.291C84.642 10.4958 83.551 9.9099 82.192 9.9099C79.549 9.9099 77.073 11.9803 77.073 15.2869C77.073 18.5751 79.527 20.6833 82.172 20.6833C83.535 20.6833 84.648 20.0987 85.13 19.3034V19.9514C85.131 20.0675 85.178 20.1788 85.26 20.2611C85.342 20.3433 85.454 20.39 85.57 20.391H87.69C87.748 20.3923 87.806 20.3819 87.86 20.3602C87.914 20.3386 87.963 20.3063 88.004 20.2652C88.046 20.2241 88.078 20.1751 88.1 20.1211C88.121 20.0672 88.132 20.0094 88.131 19.9513V10.6639C88.132 10.6042 88.122 10.5447 88.101 10.489C88.079 10.4333 88.046 10.3825 88.005 10.3396C87.963 10.2967 87.913 10.2625 87.858 10.2392C87.803 10.2158 87.743 10.2037 87.684 10.2035ZM82.753 17.876C81.35 17.876 80.295 16.8007 80.295 15.3088C80.295 13.8169 81.35 12.7427 82.753 12.7427C84.157 12.7427 85.211 13.8157 85.211 15.3076C85.211 16.7995 84.158 17.8748 82.753 17.8748V17.876ZM99.581 5.74722H97.461C97.402 5.74543 97.343 5.75543 97.287 5.77665C97.232 5.79787 97.181 5.82988 97.138 5.87081C97.096 5.91174 97.061 5.96077 97.038 6.015C97.014 6.0693 97.001 6.1278 97.001 6.1869V11.2496C96.512 10.4958 95.405 9.9099 94.021 9.9099C91.397 9.9099 88.964 11.9803 88.964 15.2869C88.964 18.5751 91.418 20.6833 94.063 20.6833C95.426 20.6833 96.455 20.0987 97.021 19.3034V19.9514C97.022 20.0677 97.068 20.1791 97.151 20.2615C97.233 20.3438 97.345 20.3904 97.461 20.391H99.581C99.639 20.3925 99.697 20.3821 99.751 20.3605C99.805 20.339 99.855 20.3066 99.896 20.2655C99.937 20.2244 99.97 20.1753 99.991 20.1213C100.013 20.0673 100.023 20.0094 100.022 19.9513V6.1894C100.024 6.1311 100.013 6.0729 99.992 6.0186C99.971 5.96428 99.938 5.9149 99.897 5.8735C99.856 5.8321 99.806 5.79955 99.752 5.77785C99.697 5.75615 99.639 5.74575 99.581 5.7473V5.74722ZM94.65 17.9016C93.253 17.9016 92.207 16.8153 92.207 15.3076C92.207 13.7998 93.256 12.7135 94.65 12.7135C96.044 12.7135 97.094 13.7998 97.094 15.3076C97.094 16.8153 96.049 17.9016 94.65 17.9016ZM111.475 5.74722H109.36C109.3 5.74544 109.241 5.75544 109.186 5.77665C109.13 5.79786 109.079 5.82985 109.037 5.87076C108.994 5.91168 108.959 5.96069 108.935 6.015C108.912 6.0692 108.899 6.1277 108.898 6.1869V11.2496C108.415 10.4958 107.302 9.9099 105.918 9.9099C103.294 9.9099 100.861 11.9803 100.861 15.2869C100.861 18.5751 103.316 20.6833 105.96 20.6833C107.324 20.6833 108.352 20.0987 108.919 19.3034V19.9514C108.919 20.0677 108.966 20.1792 109.049 20.2615C109.131 20.3438 109.243 20.3903 109.36 20.391H111.475C111.534 20.3925 111.592 20.3822 111.646 20.3606C111.7 20.339 111.749 20.3067 111.79 20.2655C111.831 20.2244 111.864 20.1753 111.885 20.1212C111.907 20.0672 111.917 20.0094 111.915 19.9513V6.1894C111.917 6.1311 111.907 6.073 111.886 6.0187C111.865 5.96441 111.832 5.91503 111.791 5.87361C111.75 5.8322 111.701 5.79963 111.646 5.7779C111.592 5.75618 111.534 5.74576 111.475 5.7473V5.74722ZM106.545 17.9016C105.146 17.9016 104.102 16.8153 104.102 15.3076C104.102 13.7998 105.151 12.7135 106.545 12.7135C107.939 12.7135 108.988 13.7998 108.988 15.3076C108.988 16.8153 107.946 17.9016 106.549 17.9016H106.545ZM123.081 10.9159L119.918 21.7294C119.307 23.6536 117.945 24.8046 115.826 24.8046C114.862 24.8046 113.985 24.6084 113.297 24.2163C112.896 23.9886 112.564 23.7803 112.564 23.4466C112.564 23.2396 112.631 23.1324 112.753 22.9387L113.381 22.001C113.558 21.7391 113.689 21.6539 113.88 21.6539C114.031 21.6576 114.177 21.7083 114.297 21.7988C114.692 22.0534 115.058 22.2726 115.617 22.2726C116.269 22.2726 116.767 22.0643 117.036 21.2898L117.307 20.3922H116.027C115.712 20.3922 115.539 20.2047 115.46 19.9526L112.63 10.9159C112.525 10.5602 112.621 10.2047 113.145 10.2047H115.375C115.647 10.2047 115.838 10.2972 115.958 10.6857L118.048 17.9625L120.002 10.6857C120.064 10.4349 120.233 10.2047 120.569 10.2047H122.684C123.1 10.2035 123.226 10.4958 123.081 10.9159ZM50.008 14.1323V19.9088C50.009 19.9717 49.997 20.0342 49.974 20.0926C49.95 20.1509 49.915 20.204 49.87 20.2485C49.825 20.293 49.772 20.3281 49.714 20.3518C49.655 20.3754 49.592 20.3871 49.529 20.3862H47.78C47.717 20.3873 47.654 20.3758 47.595 20.3522C47.537 20.3286 47.483 20.2935 47.439 20.2489C47.394 20.2043 47.359 20.1512 47.335 20.0928C47.311 20.0344 47.3 19.9718 47.301 19.9088V18.3925C46.191 19.7907 44.259 20.6711 42.075 20.6711C37.973 20.6711 34.767 17.5948 34.767 13.2153C34.767 8.6641 38.228 5.52688 42.6 5.52688C45.828 5.52688 48.408 6.9104 49.554 9.6933C49.586 9.7668 49.604 9.8457 49.606 9.9258C49.606 10.0574 49.519 10.1573 49.24 10.2534L47.197 11.0377C47.074 11.0887 46.936 11.0908 46.811 11.0438C46.702 10.9794 46.616 10.8816 46.567 10.7649C45.834 9.3754 44.529 8.4315 42.521 8.4315C39.916 8.4315 38.051 10.4593 38.051 13.0887C38.051 15.6377 39.639 17.7336 42.595 17.7336C44.151 17.7336 45.39 17.0029 45.968 16.2004H44.123C44.06 16.2013 43.998 16.1896 43.939 16.166C43.881 16.1423 43.827 16.1072 43.783 16.0627C43.738 16.0181 43.703 15.9651 43.679 15.9067C43.655 15.8484 43.644 15.7859 43.645 15.7229V14.1531C43.644 14.0902 43.655 14.0276 43.679 13.9693C43.703 13.9109 43.738 13.8579 43.783 13.8134C43.827 13.7689 43.881 13.7337 43.939 13.7101C43.998 13.6864 44.06 13.6747 44.123 13.6757H49.529C49.591 13.6725 49.653 13.682 49.711 13.7036C49.769 13.7251 49.822 13.7583 49.867 13.801C49.912 13.8438 49.948 13.8952 49.972 13.9522C49.996 14.0092 50.008 14.0705 50.008 14.1323ZM123.138 8.0649V7.9249C123.138 7.915 123.141 7.9055 123.148 7.8981C123.155 7.8918 123.164 7.8883 123.174 7.8883H124.067C124.071 7.8882 124.076 7.8889 124.08 7.8906C124.085 7.8923 124.089 7.8948 124.092 7.8981C124.099 7.9054 124.102 7.915 124.102 7.9249V8.0649C124.102 8.0743 124.098 8.0833 124.092 8.0904C124.089 8.0937 124.085 8.0962 124.08 8.0979C124.076 8.0996 124.071 8.1004 124.067 8.1002H123.741V8.9784C123.74 8.988 123.736 8.9971 123.729 9.0039C123.723 9.0106 123.713 9.0146 123.704 9.0149H123.535C123.531 9.0148 123.526 9.0139 123.522 9.012C123.518 9.0101 123.514 9.0074 123.511 9.0039C123.507 9.0006 123.505 8.9966 123.503 8.9922C123.501 8.9879 123.5 8.9831 123.5 8.9784V8.1002H123.174C123.169 8.1006 123.164 8.0999 123.16 8.0983C123.155 8.0967 123.151 8.0941 123.148 8.0907C123.144 8.0873 123.142 8.0833 123.14 8.0788C123.138 8.0744 123.138 8.0696 123.138 8.0649ZM124.699 7.92L124.944 8.4839L125.188 7.92C125.192 7.91 125.199 7.9014 125.208 7.8956C125.218 7.8904 125.229 7.8879 125.241 7.8883H125.524C125.529 7.888 125.533 7.8886 125.538 7.8902C125.542 7.8918 125.546 7.8943 125.549 7.8975C125.553 7.9007 125.555 7.9046 125.557 7.9089C125.559 7.9132 125.56 7.9178 125.559 7.9225V8.9796C125.56 8.9842 125.559 8.9888 125.558 8.9932C125.556 8.9976 125.554 9.0016 125.55 9.0048C125.547 9.0082 125.543 9.0108 125.539 9.0125C125.534 9.0142 125.53 9.015 125.525 9.0149H125.366C125.362 9.015 125.357 9.0142 125.353 9.0126C125.348 9.0109 125.344 9.0083 125.341 9.0051C125.337 9.0018 125.335 8.9978 125.333 8.9934C125.331 8.9889 125.331 8.9842 125.331 8.9795V8.1818L125.068 8.7616C125.065 8.7725 125.058 8.7822 125.049 8.7895C125.039 8.7951 125.027 8.7976 125.016 8.7968H124.886C124.875 8.7974 124.864 8.7949 124.855 8.7895C124.845 8.7825 124.838 8.7727 124.835 8.7616L124.574 8.1819V8.9796C124.573 8.989 124.57 8.998 124.564 9.0051C124.557 9.0111 124.548 9.0146 124.539 9.0149H124.377C124.373 9.015 124.368 9.0141 124.364 9.0124C124.36 9.0107 124.357 9.0083 124.354 9.0051C124.35 9.0019 124.348 8.9979 124.346 8.9934C124.344 8.989 124.344 8.9843 124.344 8.9796V7.9224C124.344 7.9178 124.345 7.9132 124.346 7.9088C124.348 7.9045 124.351 7.9007 124.354 7.8974C124.357 7.8942 124.361 7.8917 124.366 7.8902C124.37 7.8886 124.375 7.888 124.379 7.8883H124.654C124.665 7.888 124.676 7.8905 124.686 7.8956C124.693 7.9023 124.697 7.9108 124.699 7.92Z" fill="#B5C0F8"/>
</g>
</g>
</svg>
