<svg width="168" height="139" viewBox="0 0 168 139" fill="none" xmlns="http://www.w3.org/2000/svg">
<path d="M6.77445 57.1059C6.72029 57.0893 6.61406 57.0687 6.45576 57.0439C6.29747 57.0191 6.13088 57.0214 5.956 57.0508C5.64361 57.0262 5.36648 56.9058 5.12464 56.6896C4.90777 56.4692 4.77205 56.1965 4.71746 55.8718C4.68807 55.6969 4.67747 55.5574 4.68566 55.4533C4.74802 55.3657 4.77689 55.1553 4.77227 54.8222C4.79684 54.5098 4.78813 54.2287 4.74614 53.9788C4.7959 53.8163 4.83317 53.656 4.85794 53.4977C4.87852 53.3144 4.90109 53.0665 4.92566 52.7542C4.94078 51.6213 5.09228 49.6949 5.38014 46.9749C5.668 44.2549 5.88467 42.7928 6.03016 42.5885L5.96089 42.1763C5.94829 42.1013 5.94808 41.9473 5.96026 41.714C5.97244 41.4808 6.04498 41.2245 6.17787 40.9453C6.22742 40.6287 6.25409 40.3288 6.25787 40.0456C6.28244 39.7332 6.29462 39.5 6.29441 39.3459C6.37335 39.2042 6.47276 38.8021 6.59264 38.1398C6.73751 37.4732 6.83062 37.0337 6.87199 36.8212C6.96709 36.3172 7.08708 35.7319 7.23195 35.0653C7.3976 34.3696 7.5136 33.9134 7.57994 33.6967L7.54845 33.5093C7.59002 33.451 7.67295 33.1801 7.79724 32.6969C7.94231 32.1844 8.06251 31.7532 8.15783 31.4032C8.26553 30.9741 8.55348 29.8596 9.02167 28.0598C9.06723 27.8723 9.14396 27.6411 9.25187 27.3661C9.38057 27.0619 9.43652 26.8598 9.41973 26.7599C9.49027 26.5682 9.65046 26.4514 9.90029 26.4094C10.1251 26.3716 10.3647 26.4212 10.6189 26.5583C10.8939 26.6662 11.1149 26.8346 11.2818 27.0635L11.7573 27.6001L10.8617 30.525C10.5961 31.2375 10.3763 31.9166 10.2022 32.5624C10.0282 33.2082 9.94954 33.5811 9.96634 33.681C9.90839 33.9476 9.7946 34.4933 9.62496 35.3182C9.4803 36.1389 9.36671 36.8387 9.2842 37.4177C9.22226 37.8135 9.13954 38.2384 9.03603 38.6925C8.92833 39.1216 8.8517 39.4299 8.80614 39.6174C8.68185 40.1006 8.6239 40.3673 8.6323 40.4172C8.6155 40.3173 10.1061 40.0154 13.104 39.5116C13.5787 39.4318 14.4136 39.2787 15.6085 39.0522C16.8285 38.8215 17.5842 38.6559 17.8756 38.5556L19.7928 38.0407L20.4182 33.9667C20.5211 33.0503 20.7852 31.2591 21.2106 28.5931C21.4048 27.4558 21.5892 26.7184 21.7636 26.3808C21.9339 26.0183 22.1814 25.8097 22.5062 25.7551C22.6311 25.7341 22.8165 25.7672 23.0623 25.8543C23.3289 25.9123 23.5144 26.0224 23.6188 26.1847C23.9398 26.4133 24.1254 26.6775 24.1758 26.9773C24.2346 27.3271 24.1166 27.8478 23.8219 28.5396C23.6102 29.1146 23.3514 30.1728 23.0453 31.7142C22.9338 32.4265 22.8614 32.8369 22.8283 32.9452C22.9164 33.4698 22.8566 33.8781 22.6487 34.1699C22.5656 34.2866 22.4516 34.6782 22.3067 35.3448C22.1577 35.9864 22.0915 36.3571 22.1083 36.4571C22.1419 36.6569 22.1422 36.8881 22.1093 37.1505C22.0721 37.3879 22.012 37.565 21.9288 37.6817L21.8176 38.6252C21.4765 41.945 21.1589 44.259 20.865 45.5671C20.886 45.692 20.8613 45.9274 20.791 46.2731C20.7206 46.6189 20.6959 46.8543 20.7169 46.9792C20.6964 47.1625 20.6427 47.5311 20.556 48.0851C20.4693 48.6392 20.4343 48.9662 20.4511 49.0661C20.4473 49.3493 20.4209 49.8033 20.3718 50.4281C20.2825 52.1899 20.2505 53.1458 20.2757 53.2957C20.2341 53.354 20.1634 53.3916 20.0634 53.4084C19.9635 53.4252 19.7948 53.415 19.5574 53.3778C19.3449 53.3365 19.1845 53.2992 19.0762 53.266C18.422 53.042 18.0592 52.7177 17.9879 52.293C17.9417 52.0181 17.9932 51.637 18.1425 51.1495C18.1964 51.012 18.2973 50.1602 18.4452 48.594L18.5494 47.1508C18.6321 46.7259 18.77 45.4825 18.9629 43.4207C19.1315 41.8253 19.2366 40.9985 19.2782 40.9401L19.2152 40.5654C19.1193 40.453 18.1969 40.5438 16.4481 40.8377C14.4744 41.1694 12.6799 41.5737 11.0647 42.0507L9.30335 42.3467L8.32901 42.5104C8.25028 42.8063 8.05828 44.033 7.753 46.1908C7.46851 48.3194 7.33287 49.6523 7.34609 50.1895C7.30976 51.0434 7.22808 52.2388 7.10105 53.7757C6.96982 55.2877 6.86095 56.3978 6.77445 57.1059Z" fill="#CBD5E0"/>
<path d="M28.7348 49.6392C28.435 49.6895 28.1892 49.6795 27.9976 49.6089C27.8059 49.5384 27.5246 49.393 27.1536 49.1727C26.1822 48.4369 25.6356 47.7067 25.5139 46.9822C25.4845 46.8073 25.476 46.6803 25.4884 46.6012C25.5339 46.4137 25.5295 46.2346 25.4752 46.0639C25.4458 45.889 25.4269 45.7766 25.4185 45.7267C25.3018 45.6435 25.2413 45.5895 25.2371 45.5645C25.2287 45.5145 25.2474 45.4728 25.2932 45.4395C25.3347 45.3811 25.3638 45.3248 25.3804 45.2707C25.5303 45.2455 25.5572 45.0997 25.461 44.8333C25.3775 44.6418 25.4039 44.1878 25.5404 43.4713C25.6727 42.7298 25.8779 42.0402 26.1561 41.4026C26.3553 40.9067 26.6606 40.2774 27.0718 39.5147C27.5081 38.7478 27.9092 38.1538 28.2751 37.7327C28.7866 37.1073 29.2586 36.6298 29.6913 36.3002C30.124 35.9706 30.6171 35.695 31.1708 35.4735C31.6494 35.2646 31.9762 35.1455 32.1511 35.1161C32.326 35.0867 32.4843 35.1115 32.626 35.1904C32.7885 35.2402 33.001 35.3586 33.2637 35.5457C33.9886 35.7321 34.5159 36.0417 34.8455 36.4744C35.1958 36.8779 35.4529 37.5668 35.6166 38.5411C35.8896 40.165 35.5235 42.0376 34.5185 44.1588C34.0824 45.0798 33.6524 45.8072 33.2283 46.3408C32.8 46.8495 32.2156 47.4229 31.4751 48.0612C31.0135 48.5241 30.5725 48.8808 30.1522 49.1312C29.7527 49.3525 29.2802 49.5218 28.7348 49.6392ZM31.6648 45.0623C32.151 44.287 32.5186 43.5701 32.7676 42.9118C33.0416 42.2492 33.2633 41.4284 33.4327 40.4495C33.4863 40.0038 33.4626 39.4811 33.3619 38.8815C33.2359 38.132 33.0646 37.7241 32.848 37.6578C32.5771 37.5748 32.3168 37.5544 32.067 37.5964C31.5174 37.6887 30.9847 38.0351 30.4691 38.6355C29.8496 39.3819 29.3302 40.2655 28.9109 41.2865C28.4874 42.2824 28.0893 43.5053 27.7164 44.9552C27.5547 45.5218 27.5159 46.0549 27.5999 46.5546C27.6628 46.9293 27.8007 47.2144 28.0133 47.4099C28.251 47.6011 28.5322 47.6695 28.857 47.6149C29.6814 47.4764 30.6173 46.6255 31.6648 45.0623Z" fill="#CBD5E0"/>
<path d="M41.6909 46.3058C41.1663 46.394 40.6473 46.0573 40.134 45.2959C39.6457 44.5302 39.3091 43.5978 39.1244 42.4985L39.0485 41.8177C38.8974 40.9183 38.8339 40.1583 38.858 39.5377C38.8822 38.9171 38.8941 38.5298 38.8939 38.3757C38.9229 38.2424 38.9372 38.0216 38.9368 37.7134C38.9322 37.3803 38.9565 36.9138 39.0098 36.314C39.0628 35.406 39.1724 34.8353 39.3386 34.6018C39.5049 34.3683 39.7255 34.2285 40.0003 34.1823C40.1752 34.153 40.3459 34.1756 40.5126 34.2504C40.6751 34.3001 40.8189 34.3916 40.9441 34.5247C41.1191 34.6494 41.255 34.999 41.3515 35.5736C41.4229 35.9983 41.4547 36.4169 41.4469 36.8292C41.4392 37.2415 41.3875 37.5456 41.292 37.7415C41.2422 37.904 41.2516 38.6474 41.32 39.9717C41.3796 40.9378 41.4075 41.5625 41.4037 41.8457C41.3956 41.9499 41.4083 42.1019 41.4418 42.3017C41.5384 42.8763 41.7616 43.1342 42.1113 43.0755C42.6859 42.9789 43.3698 42.0805 44.163 40.3802C44.6946 39.2633 45.0516 38.4069 45.2341 37.8111C45.4373 37.1861 45.6153 36.4112 45.7682 35.4865C45.8301 35.0907 45.8879 34.747 45.9417 34.4554C46.0204 34.1596 46.1035 33.9659 46.1908 33.8741C46.2989 33.7532 46.4654 33.6738 46.6902 33.636C46.9401 33.5941 47.2588 33.6561 47.6463 33.8222C47.9965 34.0716 48.2052 34.3962 48.2723 34.7959C48.3437 35.2206 48.2799 35.7579 48.0809 36.4079C47.8818 37.0579 47.7477 37.941 47.6784 39.0573C47.6049 40.1485 47.6185 40.994 47.7193 41.5936C47.7949 42.0432 47.8931 42.3222 48.014 42.4303C48.1557 42.5092 48.3515 42.5277 48.6013 42.4857C49.3009 42.3681 50.0538 41.7278 50.8602 40.5648C51.2343 40.0395 51.6892 39.1539 52.2248 37.9079C52.7811 36.6327 53.0425 35.8952 53.0089 35.6953C52.9837 35.5454 53.0605 35.3142 53.2391 35.0016C53.3346 34.8057 53.4219 34.6369 53.5008 34.4952C53.6047 34.3493 53.7586 34.195 53.9625 34.0323L54.2497 33.907C54.4495 33.8734 54.71 33.9709 55.031 34.1995C55.1477 34.2827 55.2375 34.4346 55.3002 34.6552C55.3588 34.8509 55.4112 35.0861 55.4574 35.3609C55.408 35.8316 55.2943 36.4544 55.1163 37.2293C54.934 37.9792 54.7723 38.4688 54.631 38.698C54.2193 39.1525 53.8972 39.6819 53.6648 40.2861C53.187 41.1114 52.7984 41.7033 52.499 42.0619C52.2204 42.3913 52.0395 42.6143 51.9564 42.7311C51.5407 43.3147 51.0562 43.7943 50.5028 44.1699C49.9743 44.5413 49.4478 44.771 48.9232 44.8592C48.3985 44.9474 47.9528 44.8938 47.586 44.6986C46.7444 44.429 46.2438 43.8195 46.0843 42.8702C46.0549 42.6953 46.0026 42.5371 45.9274 42.3956C45.8523 42.2541 45.798 42.1605 45.7646 42.1147C45.3899 42.1777 45.1237 42.4279 44.966 42.8654C44.7212 43.5488 44.2266 44.2741 43.4821 45.0415C42.7377 45.8088 42.1406 46.2302 41.6909 46.3058Z" fill="#CBD5E0"/>
<path d="M70.9992 26.5452C70.9369 26.6328 70.8682 26.6828 70.7933 26.6954C70.6934 26.7122 70.5184 26.6646 70.2683 26.5525C70.0143 26.5695 69.6413 26.4138 69.1494 26.0854C68.6783 25.7279 68.4323 25.4867 68.4113 25.3618C68.2774 24.8705 68.2621 24.3208 68.3653 23.7126C68.4686 23.1044 68.7805 22.7437 69.301 22.6305C69.3759 22.6179 69.48 22.6261 69.6134 22.6551C69.7425 22.6591 69.9674 22.6984 70.2882 22.7729C70.355 22.8644 70.4906 23.06 70.6951 23.3596C70.9245 23.655 71.1019 23.9463 71.2273 24.2335C71.3776 24.5165 71.4737 24.7829 71.5157 25.0327C71.6165 25.6323 71.4443 26.1365 70.9992 26.5452ZM69.2774 42.2092C68.9027 42.2722 68.5255 42.0915 68.146 41.6672C67.7914 41.2387 67.5492 40.7913 67.4195 40.3251C67.3599 39.3589 67.3215 38.6718 67.3043 38.2637C67.3488 37.3057 67.449 35.9916 67.605 34.3213C67.7818 32.6218 67.9034 31.6638 67.9697 31.4471C68.0237 31.3096 68.1256 31.2282 68.2755 31.203C68.4254 31.1779 68.5962 31.2005 68.7879 31.2711C68.9796 31.3416 69.1483 31.4288 69.2943 31.5328C69.5403 31.774 69.6927 32.0695 69.7515 32.4192C69.8397 32.9439 69.7746 34.0851 69.5562 35.843C69.4164 37.1509 69.3406 38.0756 69.3288 38.617C69.317 39.1584 69.374 39.7269 69.4998 40.3223C69.5042 40.5013 69.5046 40.8095 69.501 41.2468C69.5182 41.655 69.5103 41.9132 69.4771 42.0215C69.4439 42.1298 69.3774 42.1924 69.2774 42.2092Z" fill="#CBD5E0"/>
<path d="M79.1856 41.6615C78.819 41.6204 78.5128 41.5562 78.267 41.4691C78.0212 41.382 77.6815 41.195 77.2479 40.9082C76.6975 40.3842 76.3053 39.885 76.0715 39.4105C75.8584 38.9069 75.6574 38.0929 75.4684 36.9687C75.3677 36.3691 75.4278 34.6635 75.6489 31.852C75.6284 32.0353 75.6549 31.6583 75.7286 30.7212C75.7574 30.4338 75.6281 30.2757 75.3406 30.2469C75.0532 30.2181 74.6597 30.2457 74.16 30.3297C73.7353 30.4011 73.4813 30.4181 73.398 30.3807C73.3188 30.3683 73.2625 30.3393 73.2292 30.2935C73.2208 30.2435 73.2145 30.206 73.2103 30.1811C73.1893 30.0561 73.1141 29.9146 72.9848 29.7566C72.9556 29.7358 72.9368 29.7004 72.9284 29.6504C72.9074 29.5255 72.9468 29.3776 73.0465 29.2067C73.1712 29.0316 73.3314 28.9148 73.5271 28.8562C73.6478 28.8103 73.9288 28.7245 74.3701 28.599C74.8114 28.4734 75.2193 28.3021 75.5939 28.085C75.9684 27.868 76.245 27.6031 76.4237 27.2905C76.6099 26.4115 76.8668 25.4179 77.1943 24.3096C77.5176 23.1763 77.7499 22.4951 77.8912 22.2658C78.2573 21.9988 78.5154 21.8527 78.6653 21.8275C78.8152 21.8023 78.9485 21.8313 79.0652 21.9144C79.1819 21.9975 79.3487 22.1493 79.5656 22.3698C79.599 22.4155 79.6761 22.4925 79.797 22.6006C79.918 22.7087 79.9889 22.8252 80.0099 22.9502C80.0435 23.15 79.994 23.4666 79.8613 23.8999C79.7536 24.329 79.5089 25.0894 79.1272 26.1811L78.7975 27.1999C78.8766 27.2122 79.0536 27.1954 79.3284 27.1492C79.6032 27.103 79.826 27.0527 79.9966 26.9983C80.5295 26.806 81.0332 26.67 81.5079 26.5902C81.7577 26.5482 81.9347 26.5313 82.0389 26.5395C82.6135 26.443 83.0446 26.4861 83.3322 26.669C83.6406 26.8227 83.8618 27.1451 83.9957 27.6364C84.0918 27.9028 84.0692 28.0736 83.9277 28.1487C83.7862 28.2239 83.3657 28.3203 82.6661 28.4378C79.7891 29.0498 78.3465 29.4078 78.3383 29.5119C78.251 29.6037 78.1371 30.0724 77.9966 30.918C77.8561 31.7637 77.7469 32.5655 77.6687 33.3236C77.5959 34.8772 77.656 36.2286 77.8492 37.3778C78.0255 38.4271 78.2929 39.1014 78.6515 39.4008C78.7974 39.5047 79.0453 39.5273 79.395 39.4685C79.7448 39.4097 80.109 39.2843 80.4878 39.0922C80.8873 38.8709 81.2056 38.6248 81.4426 38.3537C81.8293 37.9034 82.1726 37.6531 82.4724 37.6027C82.6223 37.5775 82.7431 37.6086 82.8348 37.6959C82.9473 37.7541 83.0141 37.8456 83.0351 37.9705C83.0813 38.2453 82.9902 38.6203 82.7617 39.0954C82.4836 39.7329 82.0637 40.2916 81.5021 40.7713C80.9405 41.251 80.3724 41.5391 79.7978 41.6357C79.523 41.6819 79.3189 41.6905 79.1856 41.6615Z" fill="#CBD5E0"/>
<path d="M106.681 36.0004C106.339 36.1092 105.698 35.806 104.755 35.0909C104.476 34.8039 104.196 34.2858 103.916 33.5365C103.657 32.7581 103.427 31.9233 103.226 31.0323C101.756 34.362 100.442 36.3295 99.2854 36.935C99.2147 36.9726 99.1168 37.0019 98.9919 37.0228C98.7171 37.069 98.4796 36.9548 98.2793 36.6802C98.1166 36.4764 97.9538 36.1955 97.7909 35.8375C97.6237 35.4546 97.5212 35.0736 97.4832 34.6947C97.073 33.1709 96.7545 31.7345 96.5278 30.3854C96.3347 29.2362 96.2691 28.4637 96.331 28.068C96.2892 27.9723 96.2621 27.8869 96.2495 27.812C96.2327 27.712 96.2222 27.6496 96.218 27.6246C96.1554 27.5581 96.0947 27.3499 96.036 27.0001C95.9646 26.5754 95.9119 26.109 95.8779 25.601C95.8689 25.0887 95.8934 24.7763 95.9516 24.6638C95.9764 24.5055 96.1323 24.3637 96.4195 24.2384C96.8069 24.2503 97.0319 24.3667 97.0947 24.5873C97.1489 24.6039 97.2218 24.6558 97.3136 24.7432C97.4303 24.8263 97.5365 24.847 97.6323 24.8052C97.799 24.88 97.9894 25.5544 98.2035 26.8285C98.2037 26.9826 98.2227 27.1721 98.2605 27.3969C98.3191 27.5926 98.3567 27.7404 98.3735 27.8403C98.3987 27.9902 98.403 28.0923 98.3864 28.1464C98.4704 28.6461 98.6233 29.3268 98.8452 30.1886C98.9334 30.7133 98.9923 31.1401 99.0219 31.4691L99.2111 32.8245C99.3743 33.3365 99.4913 33.6508 99.5623 33.7673C99.6582 33.8796 99.7727 33.8732 99.9058 33.7481C100.139 33.6062 100.683 32.4102 101.538 30.16C102.227 28.6056 102.669 27.645 102.864 27.2783C102.838 26.512 102.829 25.6145 102.836 24.5858C103.139 24.0981 103.441 23.8291 103.741 23.7787C103.99 23.7367 104.215 23.853 104.416 24.1276C104.795 24.2437 105.016 24.4891 105.079 24.8639C105.108 25.0388 105.117 25.1658 105.104 25.2449L104.882 27.363C104.817 28.042 104.899 29.0685 105.13 30.4425C105.34 31.6917 105.564 32.566 105.802 33.0654C105.836 33.2653 105.965 33.3463 106.19 33.3085C106.44 33.2666 106.737 33.0496 107.082 32.6576C107.535 31.9907 108.028 31.0987 108.559 29.9819C109.112 28.8358 109.371 28.1628 109.337 27.963C109.304 27.7631 109.318 27.5424 109.38 27.3007C109.438 27.0341 109.532 26.8257 109.661 26.6756C109.74 26.5339 109.787 26.3589 109.804 26.1507C109.82 25.9424 109.843 25.7716 109.872 25.6383C109.888 25.5841 109.903 25.5175 109.915 25.4383C109.948 25.33 109.979 25.2092 110.008 25.0759L109.952 24.9697C109.931 24.8448 109.995 24.6927 110.145 24.5134C110.29 24.3092 110.369 24.1675 110.382 24.0883C110.39 23.676 110.568 23.4404 110.918 23.3817C111.118 23.3481 111.32 23.404 111.524 23.5495C111.749 23.6658 111.897 23.8593 111.969 24.1299C112.048 24.6046 111.962 25.3898 111.709 26.4854C111.453 27.5561 111.127 28.5228 110.733 29.3854C110.699 29.4938 110.654 29.6812 110.596 29.9479C110.534 30.1895 110.409 30.5187 110.222 30.9354C110.056 31.323 109.797 31.8418 109.444 32.492C109.153 33.0547 108.858 33.5153 108.558 33.8738C108.184 34.5532 107.858 35.0576 107.58 35.387C107.301 35.7164 107.001 35.9209 106.681 36.0004Z" fill="#CBD5E0"/>
<path d="M119.102 34.7992C118.807 34.8745 118.555 34.904 118.347 34.8876C118.159 34.8421 117.872 34.7363 117.484 34.5702C116.263 33.8763 115.593 33.1026 115.476 32.249C115.488 32.1698 115.482 32.0553 115.456 31.9054C115.431 31.7555 115.4 31.6452 115.362 31.5744C115.32 31.4787 115.297 31.4183 115.293 31.3934C115.181 31.3352 115.11 31.2957 115.081 31.2749C115.072 31.225 115.076 31.1729 115.093 31.1187C115.135 31.0604 115.164 31.0041 115.18 30.95C115.276 30.9082 115.317 30.8498 115.305 30.7749C115.292 30.6999 115.253 30.6167 115.186 30.5251C115.077 30.3379 115.039 29.8819 115.072 29.1572C115.125 28.4033 115.236 27.6909 115.406 27.0202C115.526 26.5119 115.736 25.8474 116.034 25.0265C116.358 24.2014 116.674 23.5575 116.981 23.0948C117.405 22.4071 117.802 21.8651 118.172 21.469C118.567 21.0686 119.035 20.7202 119.576 20.4238C120.063 20.1108 120.407 19.9375 120.607 19.9039C120.856 19.8619 121.194 19.9593 121.619 20.1961C122.248 20.2702 122.74 20.4445 123.094 20.7189C123.469 20.9641 123.799 21.3968 124.083 22.017C124.321 22.5164 124.494 23.0909 124.604 23.7405C124.839 25.1395 124.66 26.7495 124.067 28.5703C123.768 29.5452 123.448 30.3182 123.108 30.8893C122.763 31.4353 122.27 32.0961 121.63 32.8716C121.177 33.3845 120.769 33.7869 120.407 34.079C120.07 34.3668 119.635 34.6069 119.102 34.7992ZM121.351 29.8359C121.745 28.9732 122.028 28.2065 122.197 27.5358C122.363 26.84 122.454 26.0028 122.469 25.024C122.477 24.9199 122.456 24.7179 122.406 24.4182C122.322 23.9185 122.192 23.4522 122.016 23.0193C121.841 22.5864 121.676 22.3701 121.522 22.3703C121.309 22.3289 121.116 22.3229 120.941 22.3523C120.366 22.4489 119.811 22.889 119.275 23.6727C118.793 24.473 118.411 25.4106 118.129 26.4855C117.868 27.5312 117.645 28.8018 117.46 30.2972C117.419 30.8178 117.423 31.2281 117.474 31.5278C117.549 31.9775 117.698 32.3251 117.919 32.5705C118.135 32.791 118.406 32.8739 118.731 32.8193C119.131 32.7521 119.559 32.4746 120.017 31.9867C120.47 31.4738 120.915 30.7569 121.351 29.8359Z" fill="#CBD5E0"/>
<path d="M129.058 32.0086C128.833 31.8923 128.672 31.778 128.577 31.6657C128.481 31.5533 128.412 31.3723 128.37 31.1224C128.332 30.8976 128.313 30.7081 128.313 30.554C128.245 29.692 128.266 28.6737 128.377 27.4991L128.439 26.7181C128.409 26.0809 128.625 24.6958 129.089 22.5628C129.553 20.4298 129.973 18.9591 130.351 18.1506C130.53 17.9921 130.732 17.894 130.957 17.8562C131.282 17.8016 131.575 17.8679 131.838 18.0549C132.005 18.1297 132.111 18.3044 132.157 18.5792C132.199 18.8291 132.162 19.2206 132.046 19.7539C131.951 20.2579 131.759 21.0224 131.468 22.0474C131.402 22.264 131.29 22.6681 131.133 23.2598C131 23.8472 130.942 24.1908 130.959 24.2908C130.968 24.3407 130.984 24.3636 131.009 24.3594C131.059 24.351 131.107 24.3301 131.153 24.2968C131.194 24.2384 131.238 24.1925 131.284 24.1591C131.479 23.6383 132.032 22.8775 132.943 21.8767C133.878 20.8717 134.529 20.2357 134.895 19.9687C135.053 19.8393 135.261 19.7016 135.52 19.5555C135.778 19.4094 135.952 19.303 136.044 19.2362C136.41 18.9692 136.868 18.7895 137.417 18.6971C137.767 18.6383 138.078 18.6504 138.348 18.7333C138.64 18.7871 138.855 18.918 138.992 19.126C139.047 19.2967 139.132 19.4236 139.249 19.5067C139.391 19.5857 139.489 19.6334 139.543 19.65C139.618 19.6374 139.674 19.6665 139.712 19.7373C139.745 19.783 139.764 19.8184 139.768 19.8434C139.797 20.0183 139.716 20.1475 139.525 20.231C139.329 20.2896 138.971 20.3755 138.451 20.4886C138.18 20.5598 137.903 20.6705 137.62 20.8208C137.337 20.9712 137.058 21.1465 136.784 21.3467C135.519 22.3813 134.575 23.1822 133.951 23.7495C133.352 24.3125 132.768 25.0401 132.198 25.9321C131.974 26.2781 131.702 26.8761 131.382 27.7261C131.237 27.9304 131.127 28.4241 131.053 29.2072C131 29.9611 130.988 30.4255 131.018 30.6003C131.005 30.6795 130.981 30.8378 130.943 31.0752C130.902 31.2877 130.823 31.5064 130.707 31.7315C130.474 32.1816 130.258 32.4235 130.058 32.457C129.833 32.4948 129.5 32.3453 129.058 32.0086Z" fill="#CBD5E0"/>
<path d="M148.94 19.9975C148.332 20.5106 147.85 21.0027 147.492 21.4738C147.363 21.6239 147.172 21.8615 146.919 22.1867C146.661 22.4869 146.43 22.7184 146.226 22.8811C146.485 23.1973 146.687 23.4073 146.833 23.5112L147.634 24.3785C148.706 25.5598 149.477 26.3293 149.948 26.6868C150.419 27.0444 151.109 27.4037 152.018 27.7648C152.272 27.9019 152.41 28.1099 152.431 28.3889C152.377 28.6806 152.294 28.8743 152.182 28.9703C152.09 29.037 151.78 29.1791 151.251 29.3963C150.872 29.4343 150.575 29.4202 150.358 29.3538C150.166 29.2833 149.733 29.0735 149.058 28.7246C148.595 28.417 147.897 27.8537 146.963 27.0345C146.049 26.1861 145.207 25.3772 144.435 24.6077C144.302 24.5787 144.181 24.4706 144.073 24.2834C143.804 25.4332 143.688 26.1205 143.726 26.3454C143.647 26.7953 143.608 27.2514 143.609 27.7137C143.564 28.5175 143.473 29.1236 143.336 29.532C143.379 30.09 143.238 30.3963 142.913 30.4509C142.738 30.4803 142.498 30.4306 142.194 30.3019C141.919 30.194 141.707 30.0756 141.557 29.9467C141.431 29.8136 141.35 29.6346 141.312 29.4098C141.253 29.06 141.249 28.6498 141.298 28.1791C141.347 27.7084 141.411 27.2481 141.49 26.7982C141.489 26.1818 141.507 25.6779 141.544 25.2863C141.602 24.8656 141.724 24.4469 141.911 24.0301C142.01 23.397 142.117 22.8137 142.233 22.2805C142.585 20.2434 142.799 18.8459 142.877 18.0878C143.068 17.3878 143.24 16.6525 143.393 15.8818C143.588 15.2069 143.855 14.1216 144.194 12.626L144.424 11.2388C144.584 10.0558 144.806 9.15798 145.088 8.54538C145.147 8.43285 145.313 8.04529 145.587 7.38272C145.595 7.27859 145.686 7.21183 145.861 7.18244C146.036 7.15305 146.205 7.16324 146.367 7.213C146.526 7.23777 146.651 7.29382 146.742 7.38116C146.863 7.33518 147.028 7.47448 147.236 7.79905C147.47 8.11942 147.591 8.38164 147.6 8.58571C147.646 8.86052 147.597 9.17711 147.451 9.53548C147.389 9.62302 147.314 9.78971 147.227 10.0356C147.14 10.2814 147.03 10.5439 146.897 10.8231C146.86 11.0606 146.812 11.3897 146.755 11.8104C146.722 12.2269 146.662 12.5581 146.575 12.8039C146.513 13.0456 146.421 13.3435 146.301 13.6976C146.202 14.0226 146.139 14.2643 146.115 14.4226C146.044 14.7683 145.914 15.2912 145.723 15.9911C145.458 17.0119 145.303 17.693 145.257 18.0346C145.237 18.2179 145.171 18.6657 145.059 19.378C144.944 20.0653 144.795 20.7069 144.612 21.3027C144.691 21.161 144.764 21.0589 144.83 20.9963C144.893 20.9088 144.943 20.8233 144.98 20.74C144.988 20.6359 145.1 20.4629 145.317 20.221C145.558 19.975 145.72 19.7936 145.803 19.6769C146.431 19.1346 147.224 18.3464 148.18 17.3122C149.157 16.2489 149.729 15.6005 149.896 15.367C150.02 15.1919 150.158 15.0918 150.307 15.0666C150.432 15.0456 150.576 15.06 150.739 15.1098C151.051 15.1343 151.272 15.2256 151.401 15.3837C151.526 15.5168 151.627 15.8082 151.702 16.2579C151.823 16.5201 151.772 16.8242 151.547 17.1702C151.323 17.5162 150.944 17.9394 150.412 18.4399C149.834 18.9738 149.343 19.493 148.94 19.9975Z" fill="#CBD5E0"/>
<path d="M159.117 27.7662C157.868 27.9762 156.88 27.6797 156.155 26.8769C155.946 26.7064 155.817 26.4713 155.766 26.1715C155.741 26.0216 155.745 25.8925 155.778 25.7841C155.832 25.6466 155.909 25.5695 156.009 25.5527C156.134 25.5317 156.286 25.596 156.465 25.7457C156.849 25.8868 157.365 25.9028 158.015 25.7936C158.714 25.6761 159.38 25.4357 160.013 25.0725C160.754 24.5884 160.932 24.2758 160.549 24.1347L160.586 24.1284C159.57 24.0423 158.516 23.7314 157.424 23.1956C156.353 22.6306 155.719 22.0692 155.523 21.5114C155.397 21.2242 155.307 20.9182 155.253 20.5935C155.148 19.9689 155.18 19.3212 155.35 18.6505C155.52 17.9797 155.798 17.3421 156.185 16.7377C156.854 16.1371 157.297 15.7929 157.514 15.7051L157.52 15.7426C157.873 15.2465 158.325 14.7982 158.874 14.3976C159.448 13.9929 160.195 13.5462 161.115 13.0577L161.664 12.8883L162.401 12.6874C162.43 12.7082 162.497 12.7226 162.601 12.7308C162.705 12.739 162.809 12.7472 162.914 12.7554C163.076 12.8052 163.207 12.8216 163.307 12.8048C163.795 12.8 164.255 13.0181 164.689 13.4589C165.147 13.8956 165.39 14.343 165.415 14.8011C165.449 15.3091 165.373 15.7715 165.186 16.1883C165.02 16.5758 164.779 16.8219 164.462 16.9264C164.483 16.8972 164.425 16.8557 164.287 16.8017C164.15 16.7478 164.039 16.7021 163.956 16.6647L163.856 16.7586C163.852 16.7336 163.833 16.6982 163.8 16.6524C163.787 16.5775 163.75 16.5067 163.687 16.4402C163.587 16.3029 163.518 16.1218 163.48 15.897L163.423 15.3285L163.435 14.9412C163.423 14.8663 163.364 14.8247 163.26 14.8165C163.152 14.7833 163.01 14.7814 162.835 14.8108L162.529 14.8237C162.129 14.8909 161.659 15.0727 161.118 15.3691C160.577 15.6656 160.144 15.9952 159.82 16.3579C159.063 17.0503 158.508 17.6446 158.154 18.1406C157.822 18.6075 157.577 19.1368 157.419 19.7284C157.191 20.2035 157.093 20.541 157.127 20.7409C157.173 21.0157 157.407 21.259 157.828 21.4708C158.274 21.6785 158.967 21.9087 159.909 22.1614C160.659 22.3437 161.273 22.5615 161.753 22.8149C162.257 23.0641 162.618 23.376 162.835 23.7505C162.868 23.7963 162.897 23.8941 162.923 24.044C162.952 24.2189 162.946 24.3355 162.904 24.3939C162.963 24.4355 162.994 24.4687 162.998 24.4937L162.992 24.4562C163.125 24.6393 163.203 24.7933 163.224 24.9182C163.291 25.3179 163.104 25.7347 162.663 26.1684C162.218 26.5772 161.621 26.9216 160.872 27.2016L160.909 27.1953C160.339 27.471 159.741 27.6613 159.117 27.7662Z" fill="#CBD5E0"/>
<path d="M155.941 131.629C154.484 127.149 152.244 122.892 150.34 118.636C150.116 118.076 149.22 118.076 148.884 118.412C146.98 120.428 144.852 122.444 143.62 124.908H143.508C129.843 125.916 116.626 114.267 107.218 105.755C96.3529 96.0105 86.4964 84.1378 82.5761 69.9129C82.3521 68.1208 82.1281 66.2167 82.1281 64.3126C82.1281 63.4166 80.8961 63.4166 80.784 64.3126C80.784 64.6486 80.784 64.9846 80.784 65.3207C80.336 65.3207 80 65.6567 80 66.2167C80.112 67.4488 80.448 68.6809 80.672 69.9129C81.5681 100.267 111.81 129.5 141.38 131.405C140.371 133.197 139.476 135.101 138.356 136.893C137.795 137.677 138.692 138.461 139.476 138.349C145.076 137.565 150.116 134.877 155.269 132.861C155.716 132.749 156.164 132.301 155.941 131.629ZM140.931 136.109C141.604 134.653 142.052 133.197 142.836 131.741C143.06 131.18 142.724 130.733 142.388 130.621C142.388 130.285 142.164 130.06 141.828 129.949C115.058 125.468 93.3288 107.211 85.2643 82.4575C90.5286 92.2021 98.5931 100.715 106.546 107.883C112.37 113.148 118.53 117.852 125.251 121.772C130.515 124.796 137.123 127.596 143.172 125.692C142.836 126.588 144.18 127.036 144.628 126.364C146.084 124.46 147.54 122.668 149.108 120.988C150.676 124.46 152.356 127.932 153.588 131.516C149.444 133.085 145.3 135.101 140.931 136.109Z" fill="#DCDFEE"/>
</svg>
