<svg width="103" height="28" viewBox="0 0 103 28" fill="none" xmlns="http://www.w3.org/2000/svg">
<g style="mix-blend-mode:luminosity" opacity="0.8">
<g style="mix-blend-mode:luminosity" opacity="0.8">
<path fill-rule="evenodd" clip-rule="evenodd" d="M37.395 9.08453L37.481 10.6231C38.465 9.43313 39.755 8.83813 41.353 8.83813C44.121 8.83813 45.53 10.4257 45.579 13.6009V22.3985H42.594V13.7731C42.594 12.9282 42.412 12.3031 42.048 11.8964C41.683 11.4904 41.087 11.2874 40.26 11.2874C39.055 11.2874 38.158 11.8334 37.569 12.924V22.3985H34.583V9.08453H37.397H37.395ZM54.476 22.6449C52.585 22.6449 51.05 22.0485 49.875 20.855C48.699 19.6615 48.111 18.0718 48.111 16.0866V15.7177C48.111 14.3891 48.367 13.2012 48.879 12.1554C49.391 11.1096 50.111 10.2955 51.036 9.71243C51.962 9.13073 52.994 8.83953 54.133 8.83953C55.943 8.83953 57.342 9.41773 58.329 10.5741C59.317 11.7312 59.81 13.3671 59.81 15.4839V16.69H51.122C51.213 17.789 51.578 18.6584 52.222 19.2982C52.865 19.938 53.674 20.2579 54.649 20.2579C56.017 20.2579 57.131 19.7049 57.991 18.5968L59.601 20.1354C59.068 20.9306 58.358 21.548 57.469 21.9869C56.58 22.4258 55.583 22.6449 54.477 22.6449H54.476ZM54.121 11.2391C53.301 11.2391 52.64 11.5261 52.136 12.1001C51.632 12.6741 51.311 13.4742 51.171 14.4997H56.861V14.2778C56.795 13.2768 56.529 12.5208 56.062 12.0077C55.595 11.4953 54.948 11.2391 54.121 11.2391ZM65.867 5.84913V9.08523H68.215V11.3H65.867V18.7319C65.867 19.2401 65.968 19.6069 66.169 19.833C66.369 20.0584 66.728 20.1711 67.244 20.1711C67.596 20.1701 67.946 20.1288 68.288 20.0479V22.3614C67.609 22.5504 66.953 22.6442 66.322 22.6442C64.029 22.6442 62.882 21.3772 62.882 18.8425V11.2993H60.693V9.08453H62.88V5.84843H65.866L65.867 5.84913ZM73.671 22.3992H70.685V3.49923H73.671V22.3992ZM80.098 22.3992H77.111V9.08523H80.098V22.3992ZM76.927 5.62723C76.927 5.16873 77.072 4.78723 77.363 4.48343C77.654 4.18033 78.07 4.02843 78.61 4.02843C79.151 4.02843 79.569 4.18033 79.864 4.48343C80.159 4.78723 80.306 5.16873 80.306 5.62793C80.306 6.07873 80.159 6.45393 79.864 6.75353C79.569 7.05313 79.151 7.20293 78.61 7.20293C78.07 7.20293 77.654 7.05313 77.363 6.75353C77.072 6.45463 76.927 6.07873 76.927 5.62793V5.62723ZM84.398 22.3992V11.2993H82.371V9.08453H84.398V7.86653C84.398 6.38953 84.808 5.24993 85.627 4.44563C86.446 3.64203 87.593 3.24023 89.067 3.24023C89.592 3.24023 90.149 3.31373 90.739 3.46143L90.665 5.79943C90.288 5.72955 89.906 5.69673 89.522 5.70143C88.097 5.70143 87.384 6.43503 87.384 7.90363V9.08453H90.087V11.2993H87.384V22.3985H84.398V22.3992ZM96.919 18.1173L99.623 9.08523H102.805L97.522 24.4173C96.711 26.6566 95.335 27.7766 93.393 27.7766C92.959 27.7766 92.479 27.7024 91.955 27.5547V25.2412L92.521 25.2783C93.274 25.2783 93.841 25.1411 94.223 24.866C94.603 24.5916 94.904 24.1303 95.126 23.4821L95.555 22.3376L90.886 9.08523H94.106L96.919 18.1173Z" fill="#B5C0F8"/>
</g>
<g style="mix-blend-mode:luminosity" opacity="0.8">
<path d="M19.541 9.89443L19.531 9.89023C19.525 9.88813 19.52 9.88603 19.515 9.88113C19.507 9.87253 19.501 9.86213 19.497 9.85083C19.494 9.83963 19.493 9.82763 19.495 9.81604L20.037 6.50784L22.577 9.04603L19.935 10.1688C19.928 10.1718 19.92 10.1732 19.912 10.173H19.902C19.898 10.1709 19.895 10.1681 19.888 10.1611C19.789 10.0518 19.672 9.96144 19.541 9.89443ZM23.225 9.69283L25.941 12.406C26.505 12.9702 26.787 13.2516 26.89 13.5778C26.906 13.6261 26.918 13.6744 26.928 13.7241L20.438 10.978C20.434 10.9766 20.431 10.9752 20.427 10.9738C20.401 10.9633 20.371 10.9514 20.371 10.9248C20.371 10.8982 20.402 10.8856 20.428 10.8751L20.436 10.8716L23.225 9.69283ZM26.817 14.5949C26.677 14.8581 26.404 15.1311 25.941 15.5938L22.879 18.6521L18.919 17.8282L18.898 17.824C18.863 17.8184 18.826 17.8121 18.826 17.7806C18.811 17.6174 18.762 17.459 18.684 17.3154C18.605 17.1717 18.497 17.0458 18.367 16.9455C18.351 16.9294 18.355 16.9042 18.36 16.8811C18.36 16.8776 18.36 16.8741 18.361 16.8713L19.106 12.3031L19.109 12.2877C19.113 12.2527 19.12 12.2121 19.151 12.2121C19.311 12.1923 19.465 12.1409 19.604 12.061C19.744 11.9811 19.866 11.8742 19.964 11.7466C19.97 11.7396 19.974 11.7319 19.983 11.7277C20.005 11.7172 20.032 11.7277 20.055 11.7375L26.817 14.5949ZM22.175 19.3556L17.14 24.3858L18.002 19.0938L18.003 19.0868C18.004 19.0798 18.006 19.0728 18.008 19.0665C18.015 19.0497 18.033 19.0427 18.05 19.0357L18.059 19.0322C18.247 18.9518 18.414 18.8277 18.546 18.6703C18.563 18.6507 18.583 18.6318 18.609 18.6283C18.616 18.6272 18.622 18.6272 18.629 18.6283L22.175 19.3563V19.3556ZM16.074 25.4505L15.507 26.0175L9.23199 16.9581C9.22999 16.9548 9.22801 16.9515 9.22501 16.9483C9.21601 16.935 9.205 16.9217 9.207 16.9063C9.207 16.8951 9.21501 16.8853 9.22301 16.8769L9.23 16.8678C9.248 16.8398 9.265 16.8118 9.282 16.7817L9.29601 16.7572L9.298 16.7551C9.308 16.7383 9.317 16.7222 9.334 16.7131C9.349 16.7061 9.36899 16.7089 9.38499 16.7124L16.337 18.1446C16.356 18.1476 16.374 18.1556 16.39 18.1677C16.399 18.1768 16.401 18.1866 16.403 18.1978C16.452 18.3811 16.542 18.5507 16.667 18.6934C16.792 18.8361 16.948 18.9479 17.123 19.0203C17.143 19.0301 17.135 19.0518 17.125 19.0749C17.121 19.085 17.117 19.0956 17.115 19.1064C17.027 19.6384 16.276 24.215 16.074 25.4505ZM14.889 26.6342C14.471 27.0479 14.224 27.267 13.945 27.3552C13.67 27.4421 13.375 27.4421 13.1 27.3552C12.774 27.2516 12.491 26.9702 11.927 26.406L5.62601 20.1109L7.272 17.5608C7.28 17.5482 7.287 17.537 7.3 17.5279C7.317 17.5153 7.343 17.5209 7.364 17.5279C7.741 17.6418 8.147 17.6212 8.511 17.4698C8.53 17.4628 8.549 17.4579 8.564 17.4712C8.571 17.4779 8.57799 17.4854 8.58299 17.4936L14.889 26.6349V26.6342ZM5.01801 19.504L3.573 18.0599L6.427 16.8433C6.435 16.8401 6.443 16.8385 6.451 16.8384C6.474 16.8384 6.48801 16.8622 6.50101 16.8839C6.53001 16.928 6.56 16.971 6.592 17.0127L6.601 17.0239C6.61 17.0358 6.60399 17.0477 6.59599 17.0589L5.019 19.504H5.01801ZM2.933 17.4208L1.104 15.5938C0.793004 15.283 0.567995 15.0576 0.410995 14.8637L5.97099 16.0159C5.97799 16.0172 5.985 16.0184 5.992 16.0194C6.027 16.025 6.065 16.0313 6.065 16.0635C6.065 16.0985 6.02301 16.1146 5.98801 16.1279L5.972 16.1349L2.933 17.4208ZM0.0910034 13.9243C0.0980034 13.8066 0.119007 13.6902 0.154007 13.5778C0.258007 13.2516 0.540004 12.9702 1.104 12.406L3.44501 10.068C4.52201 11.6303 5.603 13.1906 6.686 14.7489C6.705 14.7741 6.72599 14.8021 6.70399 14.8231C6.60199 14.9358 6.5 15.059 6.427 15.1927C6.42 15.2099 6.408 15.2248 6.392 15.2361C6.383 15.2417 6.37401 15.2396 6.36301 15.2375H6.362L0.0910034 13.9236V13.9243ZM4.071 9.44223L7.216 6.29854C7.513 6.42804 8.59 6.88234 9.552 7.28833C10.281 7.59633 10.945 7.87633 11.154 7.96733C11.175 7.97573 11.194 7.98414 11.203 8.00514C11.208 8.01774 11.205 8.03384 11.203 8.04714C11.153 8.27404 11.16 8.50984 11.224 8.73314C11.288 8.95654 11.407 9.16044 11.569 9.32674C11.59 9.34774 11.569 9.37784 11.551 9.40374L11.541 9.41844L8.34599 14.3625C8.33799 14.3765 8.32999 14.3884 8.31599 14.3975C8.29899 14.408 8.275 14.4031 8.256 14.3982C8.131 14.3657 8.004 14.3483 7.875 14.3464C7.76 14.3464 7.635 14.3674 7.509 14.3905C7.495 14.3926 7.48199 14.3954 7.47099 14.387C7.45799 14.3769 7.448 14.3648 7.439 14.3513L4.07001 9.44223H4.071ZM7.853 5.66364L11.927 1.59385C12.491 1.03035 12.774 0.748245 13.1 0.645345C13.375 0.558485 13.67 0.558485 13.945 0.645345C14.272 0.748245 14.554 1.03035 15.118 1.59385L16.001 2.47585L13.104 6.95864C13.096 6.97169 13.087 6.98313 13.075 6.99224C13.057 7.00413 13.033 6.99924 13.012 6.99224C12.783 6.92298 12.541 6.91038 12.307 6.95551C12.073 7.00064 11.853 7.10214 11.666 7.25124C11.648 7.27083 11.62 7.25963 11.596 7.24914C11.217 7.08463 8.274 5.84214 7.853 5.66364ZM16.616 3.09045L19.291 5.76305L18.647 9.75164V9.76214C18.646 9.77124 18.644 9.78024 18.641 9.78874C18.634 9.80274 18.62 9.80554 18.606 9.80974C18.468 9.85144 18.338 9.91604 18.222 10.0008C18.217 10.0044 18.212 10.0084 18.208 10.0127C18.2 10.0211 18.193 10.0288 18.18 10.0302C18.17 10.0305 18.16 10.0289 18.15 10.0253L14.073 8.29494L14.066 8.29144C14.04 8.28094 14.009 8.26834 14.009 8.24174C13.985 8.01484 13.911 7.79604 13.792 7.60124C13.772 7.56904 13.75 7.53543 13.767 7.50253L16.616 3.09045ZM13.861 9.11464L17.683 10.7316C17.704 10.7414 17.727 10.7505 17.736 10.7722C17.739 10.7853 17.739 10.7991 17.736 10.8121C17.725 10.8681 17.715 10.9318 17.715 10.9962V11.1033C17.715 11.1299 17.687 11.1411 17.662 11.1516L17.654 11.1544C17.049 11.4127 9.15501 14.7755 9.14301 14.7755C9.13101 14.7755 9.11899 14.7755 9.10699 14.7636C9.08599 14.7426 9.10701 14.7132 9.12601 14.6866C9.12901 14.682 9.132 14.6773 9.136 14.6726L12.276 9.81464L12.282 9.80624C12.3 9.77684 12.321 9.74394 12.355 9.74394L12.386 9.74884C12.458 9.75864 12.521 9.76774 12.584 9.76774C13.061 9.76774 13.502 9.53604 13.769 9.13984C13.775 9.12924 13.783 9.11984 13.792 9.11184C13.811 9.09784 13.839 9.10484 13.861 9.11464ZM9.485 15.5441L18.089 11.8782C18.089 11.8782 18.102 11.8782 18.113 11.8901C18.16 11.937 18.2 11.9685 18.239 11.9979L18.258 12.0098C18.275 12.0196 18.293 12.0308 18.294 12.049C18.294 12.056 18.294 12.0602 18.293 12.0665L17.556 16.5899L17.553 16.6081C17.548 16.6431 17.543 16.683 17.51 16.683C17.314 16.6963 17.123 16.7572 16.956 16.8605C16.788 16.9638 16.648 17.1064 16.548 17.2759L16.545 17.2815C16.535 17.2976 16.526 17.313 16.51 17.3214C16.495 17.3284 16.476 17.3256 16.461 17.3221L9.599 15.9081C9.592 15.9067 9.492 15.5448 9.485 15.5441Z" fill="#B5C0F8"/>
</g>
</g>
</svg>
