<svg width="50" height="50" viewBox="0 0 50 50" fill="none" xmlns="http://www.w3.org/2000/svg">
<path d="M32.2917 14.5833C32.2917 16.7935 31.4137 18.9131 29.8508 20.4759C28.2881 22.0387 26.1685 22.9167 23.9583 22.9167C21.7481 22.9167 19.6286 22.0387 18.0658 20.4759C16.503 18.9131 15.625 16.7935 15.625 14.5833C15.625 12.3732 16.503 10.2536 18.0658 8.69077C19.6286 7.12798 21.7481 6.25 23.9583 6.25C26.1685 6.25 28.2881 7.12798 29.8508 8.69077C31.4137 10.2536 32.2917 12.3732 32.2917 14.5833ZM23.9583 29.1667C20.0906 29.1667 16.3813 30.7031 13.6464 33.4381C10.9115 36.1729 9.375 39.8823 9.375 43.75H38.5417C38.5417 39.8823 37.0052 36.1729 34.2702 33.4381C31.5354 30.7031 27.826 29.1667 23.9583 29.1667Z" stroke="#A5B4FC" stroke-width="2" stroke-linecap="round" stroke-linejoin="round"/>
</svg>
