<svg width="123" height="28" viewBox="0 0 123 28" fill="none" xmlns="http://www.w3.org/2000/svg">
<g style="mix-blend-mode:luminosity" opacity="0.8">
<g style="mix-blend-mode:luminosity" opacity="0.8">
<path d="M61.3614 6.99997C56.58 6.99997 53.1325 10.1015 53.1325 14.7538C53.1325 19.4061 57.0131 22.5077 61.7945 22.5077C64.6833 22.5077 67.2299 21.3704 68.8064 19.4535L65.4931 17.5495C64.6183 18.5015 63.2887 19.0572 61.7945 19.0572C59.7199 19.0572 57.9572 17.9803 57.3032 16.2572H69.4387C69.534 15.7747 69.5903 15.2751 69.5903 14.7495C69.5903 10.1015 66.1428 6.99997 61.3614 6.99997ZM57.2643 13.2461C57.8056 11.5274 59.2868 10.4461 61.3571 10.4461C63.4316 10.4461 64.9128 11.5274 65.4498 13.2461H57.2643ZM107.997 6.99997C103.216 6.99997 99.7686 10.1015 99.7686 14.7538C99.7686 19.4061 103.649 22.5077 108.431 22.5077C111.319 22.5077 113.866 21.3704 115.442 19.4535L112.129 17.5495C111.254 18.5015 109.925 19.0572 108.431 19.0572C106.356 19.0572 104.593 17.9803 103.939 16.2572H116.075C116.17 15.7747 116.226 15.2751 116.226 14.7495C116.226 10.1015 112.779 6.99997 107.997 6.99997ZM103.905 13.2461C104.446 11.5274 105.927 10.4461 107.997 10.4461C110.072 10.4461 111.553 11.5274 112.09 13.2461H103.905ZM87.0008 14.7538C87.0008 17.3384 88.6986 19.0615 91.3318 19.0615C93.1162 19.0615 94.4544 18.256 95.1431 16.9421L98.4693 18.8504C97.092 21.1335 94.5108 22.5077 91.3318 22.5077C86.5461 22.5077 83.1029 19.4061 83.1029 14.7538C83.1029 10.1015 86.5504 6.99997 91.3318 6.99997C94.5108 6.99997 97.0877 8.3741 98.4693 10.6572L95.1431 12.5655C94.4544 11.2517 93.1162 10.4461 91.3318 10.4461C88.7029 10.4461 87.0008 12.1692 87.0008 14.7538ZM122.723 2.26151V22.0769H118.825V2.26151H122.723ZM16.2802 0.107666L32.2831 27.6769H0.277161L16.2802 0.107666ZM56.2898 2.26151L44.2886 22.9384L32.2875 2.26151H36.7874L44.2886 15.1846L51.7899 2.26151H56.2898ZM81.8036 7.4307V11.6049C81.3705 11.48 80.9114 11.3938 80.4177 11.3938C77.9014 11.3938 76.0867 13.1169 76.0867 15.7015V22.0769H72.1889V7.4307H76.0867V11.3938C76.0867 9.2055 78.6464 7.4307 81.8036 7.4307Z" fill="#B5C0F8"/>
</g>
</g>
</svg>
